<svg width="351.76mm" height="224.28mm" viewBox="0 0 351.76 224.28" xmlns="http://www.w3.org/2000/svg" version="1.1" preserveAspectRatio="xMidYMid meet"><g id="svgGroup" stroke-linecap="round" fill-rule="evenodd" font-size="9pt" stroke="#000" stroke-width="0.25mm" fill="none" style="stroke:#000;stroke-width:0.25mm;fill:none"><path d="M 0 0 L 0 224.28 L 351.76 224.28 M 163.38 224.28 163.38 0 M 0 112.14 188.38 112.14" id="front_outsideCutPath" stroke="#FF0000" stroke-width="0.1" style="stroke:#FF0000;stroke-width:0.1" vector-effect="non-scaling-stroke"/><path d="M 98.035 176.68 L 96.217 176.68 L 96.217 168.916 A 5.139 5.139 0 0 0 96.158 168.11 Q 96.09 167.686 95.945 167.348 A 2.163 2.163 0 0 0 95.549 166.726 A 2.05 2.05 0 0 0 94.708 166.189 Q 94.18 166.003 93.457 166.003 A 5.502 5.502 0 0 0 92.427 166.093 Q 91.313 166.305 90.697 167.022 Q 89.897 167.952 89.828 169.989 A 11.646 11.646 0 0 0 89.821 170.384 L 89.821 176.68 L 88.003 176.68 L 88.003 164.678 L 89.482 164.678 L 89.777 166.321 L 89.865 166.321 A 3.681 3.681 0 0 1 91.307 165.009 A 4.426 4.426 0 0 1 91.431 164.946 A 4.923 4.923 0 0 1 93.183 164.479 A 5.953 5.953 0 0 1 93.676 164.459 A 7.177 7.177 0 0 1 94.898 164.556 Q 95.558 164.67 96.08 164.919 A 3.267 3.267 0 0 1 96.94 165.505 Q 97.773 166.3 97.972 167.822 A 7.933 7.933 0 0 1 98.035 168.85 L 98.035 176.68 Z M 63.111 164.678 L 63.111 166.091 L 60.056 166.091 L 60.056 176.68 L 58.238 176.68 L 58.238 166.091 L 56.092 166.091 L 56.092 165.269 L 58.238 164.612 L 58.238 163.944 A 7.368 7.368 0 0 1 58.41 162.275 Q 58.942 159.997 61.119 159.603 A 5.526 5.526 0 0 1 62.104 159.52 A 5.854 5.854 0 0 1 62.932 159.583 Q 63.335 159.641 63.784 159.752 A 11.768 11.768 0 0 1 64.338 159.903 L 63.867 161.36 Q 62.816 161.02 62.071 161.02 A 2.452 2.452 0 0 0 61.48 161.087 A 1.574 1.574 0 0 0 60.549 161.705 A 2.103 2.103 0 0 0 60.271 162.265 Q 60.086 162.813 60.06 163.627 A 8.583 8.583 0 0 0 60.056 163.9 L 60.056 164.678 L 63.111 164.678 Z M 107.288 175.18 L 107.288 176.571 Q 107.021 176.7 106.526 176.788 A 6.8 6.8 0 0 1 106.418 176.806 A 7.879 7.879 0 0 1 105.904 176.873 Q 105.662 176.896 105.444 176.899 A 4.661 4.661 0 0 1 105.383 176.9 Q 102.605 176.9 102.043 174.566 A 5.714 5.714 0 0 1 101.9 173.231 L 101.9 166.091 L 100.181 166.091 L 100.181 165.215 L 101.9 164.459 L 102.667 161.896 L 103.718 161.896 L 103.718 164.678 L 107.201 164.678 L 107.201 166.091 L 103.718 166.091 L 103.718 173.154 Q 103.718 174.238 104.233 174.819 Q 104.748 175.399 105.646 175.399 A 5.97 5.97 0 0 0 106.52 175.337 A 5.504 5.504 0 0 0 106.577 175.328 A 9.834 9.834 0 0 0 106.839 175.283 Q 107.09 175.236 107.264 175.187 A 2.726 2.726 0 0 0 107.288 175.18 Z M 72.212 164.59 L 71.96 166.277 Q 71.215 166.113 70.646 166.113 A 3.15 3.15 0 0 0 68.319 167.118 A 4.309 4.309 0 0 0 68.154 167.295 A 4.151 4.151 0 0 0 67.153 169.626 A 5.518 5.518 0 0 0 67.119 170.241 L 67.119 176.68 L 65.302 176.68 L 65.302 164.678 L 66.802 164.678 L 67.01 166.901 L 67.098 166.901 A 6.139 6.139 0 0 1 67.784 165.92 A 4.69 4.69 0 0 1 68.707 165.094 Q 69.649 164.459 70.777 164.459 A 8.346 8.346 0 0 1 71.524 164.491 A 6.091 6.091 0 0 1 72.212 164.59 Z M 84.65 172.495 A 9.39 9.39 0 0 0 84.817 170.668 A 10.669 10.669 0 0 0 84.813 170.38 Q 84.786 169.38 84.569 168.532 A 5.661 5.661 0 0 0 83.333 166.135 A 4.759 4.759 0 0 0 81.123 164.71 A 6.109 6.109 0 0 0 79.33 164.459 A 7.061 7.061 0 0 0 78.062 164.568 A 4.808 4.808 0 0 0 75.256 166.096 A 5.022 5.022 0 0 0 74.639 166.952 Q 74.164 167.78 73.954 168.843 A 9.439 9.439 0 0 0 73.789 170.668 A 9.094 9.094 0 0 0 73.903 172.141 A 6.725 6.725 0 0 0 74.468 173.976 A 5.975 5.975 0 0 0 74.6 174.235 A 4.922 4.922 0 0 0 76.395 176.144 A 5.062 5.062 0 0 0 77.557 176.661 A 5.838 5.838 0 0 0 79.253 176.9 A 7.059 7.059 0 0 0 80.486 176.797 A 4.847 4.847 0 0 0 83.338 175.251 Q 84.32 174.157 84.65 172.495 Z M 75.672 170.668 A 9.206 9.206 0 0 0 75.76 171.983 Q 75.857 172.651 76.06 173.192 A 3.814 3.814 0 0 0 76.592 174.173 A 2.98 2.98 0 0 0 78.533 175.315 A 4.515 4.515 0 0 0 79.297 175.377 A 4.223 4.223 0 0 0 80.411 175.239 A 2.939 2.939 0 0 0 82.008 174.178 A 3.902 3.902 0 0 0 82.615 172.995 Q 82.794 172.448 82.872 171.78 A 9.576 9.576 0 0 0 82.933 170.668 Q 82.933 168.38 82.008 167.191 A 2.99 2.99 0 0 0 80.148 166.082 A 4.585 4.585 0 0 0 79.275 166.003 A 4.326 4.326 0 0 0 78.198 166.129 A 2.895 2.895 0 0 0 76.581 167.175 A 3.759 3.759 0 0 0 75.997 168.304 Q 75.825 168.823 75.744 169.458 A 9.606 9.606 0 0 0 75.672 170.668 Z" id="front_labelLayer" stroke="#777777" fill="#777777" style="stroke:#777777;fill:#777777" vector-effect="non-scaling-stroke"/><path d="M 188.38 224.28 188.38 0" id="left_outsideCutPath" stroke="#FF0000" stroke-width="0.1" style="stroke:#FF0000;stroke-width:0.1" vector-effect="non-scaling-stroke"/><path d="M 177.659 167.423 L 177.659 167.738 L 176.977 167.738 L 176.977 170.098 L 176.572 170.098 L 176.572 167.738 L 176.094 167.738 L 176.094 167.554 L 176.572 167.408 L 176.572 167.259 Q 176.572 166.408 177.214 166.291 A 1.232 1.232 0 0 1 177.434 166.273 Q 177.646 166.273 177.932 166.358 L 177.827 166.683 Q 177.593 166.607 177.427 166.607 A 0.547 0.547 0 0 0 177.295 166.622 A 0.351 0.351 0 0 0 177.087 166.76 A 0.469 0.469 0 0 0 177.025 166.885 Q 176.984 167.007 176.978 167.188 A 1.913 1.913 0 0 0 176.977 167.249 L 176.977 167.423 L 177.659 167.423 Z M 175.762 168.577 L 175.762 168.834 L 173.918 168.834 A 1.627 1.627 0 0 0 173.947 169.106 Q 173.976 169.254 174.035 169.372 A 0.761 0.761 0 0 0 174.156 169.549 A 0.736 0.736 0 0 0 174.543 169.767 A 1.116 1.116 0 0 0 174.792 169.793 A 2.14 2.14 0 0 0 175.594 169.634 A 2.453 2.453 0 0 0 175.647 169.613 L 175.647 169.974 Q 175.432 170.067 175.24 170.107 Q 175.091 170.138 174.894 170.145 A 3.302 3.302 0 0 1 174.778 170.147 A 1.575 1.575 0 0 1 174.384 170.101 A 1.115 1.115 0 0 1 173.841 169.786 A 1.193 1.193 0 0 1 173.556 169.262 Q 173.507 169.076 173.5 168.856 A 2.315 2.315 0 0 1 173.498 168.782 Q 173.498 168.255 173.71 167.905 A 1.2 1.2 0 0 1 173.817 167.755 A 1.039 1.039 0 0 1 174.574 167.377 A 1.433 1.433 0 0 1 174.673 167.374 A 1.235 1.235 0 0 1 175.02 167.42 A 0.939 0.939 0 0 1 175.469 167.705 A 1.133 1.133 0 0 1 175.725 168.222 A 1.649 1.649 0 0 1 175.762 168.577 Z M 179.377 169.764 L 179.377 170.074 A 0.399 0.399 0 0 1 179.33 170.093 Q 179.28 170.109 179.207 170.122 A 1.515 1.515 0 0 1 179.183 170.126 Q 179.064 170.146 178.966 170.147 A 1.038 1.038 0 0 1 178.953 170.147 A 1.059 1.059 0 0 1 178.641 170.105 Q 178.176 169.962 178.176 169.329 L 178.176 167.738 L 177.793 167.738 L 177.793 167.542 L 178.176 167.374 L 178.347 166.802 L 178.581 166.802 L 178.581 167.423 L 179.358 167.423 L 179.358 167.738 L 178.581 167.738 L 178.581 169.312 A 0.816 0.816 0 0 0 178.593 169.456 Q 178.618 169.595 178.696 169.683 A 0.376 0.376 0 0 0 178.928 169.807 A 0.542 0.542 0 0 0 179.011 169.813 A 1.331 1.331 0 0 0 179.206 169.799 A 1.226 1.226 0 0 0 179.219 169.797 A 2.192 2.192 0 0 0 179.277 169.787 Q 179.333 169.776 179.372 169.765 A 0.61 0.61 0 0 0 179.377 169.764 Z M 172.788 166.3 L 172.788 170.098 L 172.383 170.098 L 172.383 166.3 L 172.788 166.3 Z M 173.928 168.504 L 175.327 168.504 A 1.381 1.381 0 0 0 175.31 168.282 Q 175.291 168.163 175.249 168.068 A 0.627 0.627 0 0 0 175.156 167.917 Q 174.985 167.713 174.668 167.713 A 0.799 0.799 0 0 0 174.437 167.745 A 0.617 0.617 0 0 0 174.154 167.923 A 0.801 0.801 0 0 0 173.995 168.192 Q 173.954 168.302 173.936 168.435 A 1.531 1.531 0 0 0 173.928 168.504 Z" id="left_labelLayer" stroke="#777777" fill="#777777" style="stroke:#777777;fill:#777777" vector-effect="non-scaling-stroke"/><path d="M 351.76 224.28 351.76 150.28 M 188.38 187.28 351.76 187.28" id="top_outsideCutPath" stroke="#FF0000" stroke-width="0.1" style="stroke:#FF0000;stroke-width:0.1" vector-effect="non-scaling-stroke"/><path d="M 272.729 206.821 L 272.686 206.821 A 5.676 5.676 0 0 1 272.723 207.24 A 4.757 4.757 0 0 1 272.729 207.478 L 272.729 209.108 L 272.13 209.108 L 272.13 203.37 L 272.617 203.37 L 272.7 203.912 L 272.729 203.912 A 1.615 1.615 0 0 1 272.963 203.647 A 1.249 1.249 0 0 1 273.268 203.442 A 1.502 1.502 0 0 1 273.698 203.316 A 1.944 1.944 0 0 1 273.972 203.298 A 1.839 1.839 0 0 1 274.492 203.367 A 1.359 1.359 0 0 1 275.188 203.836 Q 275.616 204.374 275.616 205.346 Q 275.616 206.322 275.181 206.862 A 1.42 1.42 0 0 1 274.172 207.393 A 2.034 2.034 0 0 1 273.972 207.402 Q 273.586 207.402 273.266 207.26 Q 272.946 207.117 272.729 206.821 Z M 266.869 206.835 L 266.869 207.294 Q 266.771 207.341 266.581 207.372 Q 266.404 207.4 266.26 207.402 A 1.536 1.536 0 0 1 266.24 207.402 A 1.567 1.567 0 0 1 265.778 207.34 Q 265.271 207.184 265.138 206.632 A 1.885 1.885 0 0 1 265.091 206.192 L 265.091 203.836 L 264.524 203.836 L 264.524 203.547 L 265.091 203.298 L 265.344 202.452 L 265.691 202.452 L 265.691 203.37 L 266.84 203.37 L 266.84 203.836 L 265.691 203.836 L 265.691 206.167 A 1.208 1.208 0 0 0 265.708 206.379 Q 265.729 206.495 265.775 206.587 A 0.582 0.582 0 0 0 265.86 206.716 A 0.557 0.557 0 0 0 266.203 206.898 A 0.802 0.802 0 0 0 266.327 206.907 A 1.97 1.97 0 0 0 266.615 206.887 A 1.811 1.811 0 0 0 266.634 206.884 Q 266.775 206.861 266.861 206.837 A 0.902 0.902 0 0 0 266.869 206.835 Z M 270.59 206.859 A 1.673 1.673 0 0 0 270.79 206.585 Q 271.078 206.091 271.078 205.346 A 3.52 3.52 0 0 0 271.077 205.251 Q 271.068 204.921 270.996 204.642 A 1.868 1.868 0 0 0 270.588 203.851 A 1.57 1.57 0 0 0 269.86 203.38 A 2.015 2.015 0 0 0 269.268 203.298 A 2.33 2.33 0 0 0 268.849 203.334 A 1.587 1.587 0 0 0 267.924 203.838 A 1.657 1.657 0 0 0 267.72 204.12 Q 267.44 204.609 267.44 205.346 Q 267.44 205.972 267.664 206.438 A 1.971 1.971 0 0 0 267.707 206.523 A 1.624 1.624 0 0 0 268.299 207.153 A 1.67 1.67 0 0 0 268.683 207.324 A 1.926 1.926 0 0 0 269.243 207.402 A 2.329 2.329 0 0 0 269.649 207.368 A 1.599 1.599 0 0 0 270.59 206.859 Z M 268.061 205.346 A 3.037 3.037 0 0 0 268.09 205.78 Q 268.122 206.001 268.189 206.179 A 1.258 1.258 0 0 0 268.365 206.503 A 0.983 0.983 0 0 0 269.005 206.88 A 1.49 1.49 0 0 0 269.257 206.9 A 1.393 1.393 0 0 0 269.625 206.854 A 0.97 0.97 0 0 0 270.151 206.504 Q 270.457 206.109 270.457 205.346 A 2.993 2.993 0 0 0 270.428 204.92 Q 270.397 204.703 270.331 204.527 A 1.235 1.235 0 0 0 270.151 204.199 A 0.987 0.987 0 0 0 269.538 203.833 A 1.513 1.513 0 0 0 269.25 203.807 A 1.427 1.427 0 0 0 268.894 203.849 A 0.955 0.955 0 0 0 268.361 204.194 Q 268.145 204.472 268.085 204.947 A 3.169 3.169 0 0 0 268.061 205.346 Z M 272.729 205.213 L 272.729 205.346 A 3.966 3.966 0 0 0 272.749 205.756 Q 272.803 206.277 273.008 206.541 A 0.87 0.87 0 0 0 273.449 206.838 Q 273.597 206.885 273.776 206.896 A 1.929 1.929 0 0 0 273.9 206.9 Q 274.393 206.9 274.681 206.516 A 1.196 1.196 0 0 0 274.704 206.485 A 1.45 1.45 0 0 0 274.903 206.061 Q 274.995 205.75 274.995 205.339 A 3.027 3.027 0 0 0 274.966 204.91 Q 274.904 204.475 274.704 204.203 Q 274.413 203.807 273.886 203.807 A 1.728 1.728 0 0 0 273.563 203.835 Q 273.2 203.904 273.008 204.143 A 1.028 1.028 0 0 0 272.847 204.436 Q 272.745 204.712 272.731 205.121 A 3.818 3.818 0 0 0 272.729 205.213 Z" id="top_labelLayer" stroke="#777777" fill="#777777" style="stroke:#777777;fill:#777777" vector-effect="non-scaling-stroke"/><path d="M 0 0 188.38 0" id="back_outsideCutPath" stroke="#FF0000" stroke-width="0.1" style="stroke:#FF0000;stroke-width:0.1" vector-effect="non-scaling-stroke"/><path d="M 97.044 58.337 L 97.131 58.337 Q 97.602 57.669 98.566 56.585 L 102.442 52.478 L 104.6 52.478 L 99.738 57.592 L 104.939 64.48 L 102.738 64.48 L 98.5 58.808 L 97.131 59.99 L 97.131 64.48 L 95.335 64.48 L 95.335 47.44 L 97.131 47.44 L 97.131 56.475 A 12.114 12.114 0 0 1 97.126 56.817 Q 97.11 57.378 97.047 58.291 A 75.148 75.148 0 0 1 97.044 58.337 Z M 60.259 62.936 L 60.127 62.936 L 59.744 64.48 L 58.441 64.48 L 58.441 47.44 L 60.259 47.44 L 60.259 51.58 A 37.902 37.902 0 0 1 60.238 52.86 Q 60.216 53.506 60.171 54.077 L 60.259 54.077 Q 61.529 52.281 64.026 52.281 A 5.556 5.556 0 0 1 65.589 52.489 A 4.159 4.159 0 0 1 67.7 53.896 A 5.357 5.357 0 0 1 68.639 55.705 Q 68.87 56.45 68.957 57.343 A 11.669 11.669 0 0 1 69.009 58.468 A 10.659 10.659 0 0 1 68.867 60.262 Q 68.704 61.217 68.351 61.984 A 5.11 5.11 0 0 1 67.689 63.062 A 4.304 4.304 0 0 1 64.63 64.671 A 6.166 6.166 0 0 1 64.026 64.699 A 5.514 5.514 0 0 1 62.64 64.53 A 4.798 4.798 0 0 1 61.885 64.267 A 4.026 4.026 0 0 1 60.259 62.936 Z M 80.912 64.48 L 79.565 64.48 L 79.204 62.772 L 79.116 62.772 Q 78.482 63.568 77.851 64.002 A 3.349 3.349 0 0 1 77.326 64.3 Q 76.59 64.629 75.553 64.687 A 8.181 8.181 0 0 1 75.097 64.699 Q 73.669 64.699 72.736 64.111 A 3.13 3.13 0 0 1 72.299 63.78 A 2.988 2.988 0 0 1 71.398 62.204 A 4.574 4.574 0 0 1 71.286 61.162 Q 71.286 57.644 76.732 57.366 A 17.758 17.758 0 0 1 77.101 57.351 L 79.138 57.285 L 79.138 56.541 A 5.221 5.221 0 0 0 79.088 55.786 Q 78.963 54.933 78.531 54.455 Q 78.046 53.917 77.097 53.809 A 4.492 4.492 0 0 0 76.587 53.781 A 5.919 5.919 0 0 0 75.225 53.951 Q 74.6 54.099 73.92 54.376 A 12.175 12.175 0 0 0 73.192 54.701 L 72.633 53.31 A 8.382 8.382 0 0 1 74.251 52.645 A 9.54 9.54 0 0 1 74.577 52.555 A 8.419 8.419 0 0 1 76.696 52.281 A 7.678 7.678 0 0 1 77.866 52.364 Q 78.467 52.457 78.946 52.653 A 3.094 3.094 0 0 1 79.878 53.234 A 2.879 2.879 0 0 1 80.62 54.379 Q 80.794 54.85 80.864 55.435 A 7.153 7.153 0 0 1 80.912 56.289 L 80.912 64.48 Z M 92.663 52.883 L 92.105 54.427 A 8.087 8.087 0 0 0 91.227 54.135 A 9.659 9.659 0 0 0 90.79 54.027 Q 90.181 53.892 89.693 53.872 A 4.03 4.03 0 0 0 89.531 53.869 A 4.032 4.032 0 0 0 87.893 54.176 Q 86.177 54.933 85.919 57.549 A 10.045 10.045 0 0 0 85.873 58.534 Q 85.873 60.746 86.766 61.929 A 2.887 2.887 0 0 0 88.636 63.047 A 4.398 4.398 0 0 0 89.411 63.111 A 7.61 7.61 0 0 0 91.51 62.806 A 9.396 9.396 0 0 0 92.488 62.465 L 92.488 64.075 A 5.171 5.171 0 0 1 91.223 64.523 Q 90.638 64.653 89.959 64.687 A 9.969 9.969 0 0 1 89.454 64.699 A 6.794 6.794 0 0 1 87.802 64.51 A 4.607 4.607 0 0 1 85.419 63.095 A 5.258 5.258 0 0 1 84.325 61.087 Q 84.084 60.289 84.016 59.331 A 10.992 10.992 0 0 1 83.99 58.556 A 10.03 10.03 0 0 1 84.145 56.732 Q 84.333 55.714 84.75 54.912 A 5.012 5.012 0 0 1 85.441 53.902 A 4.707 4.707 0 0 1 88.018 52.419 A 7.136 7.136 0 0 1 89.575 52.259 A 8.204 8.204 0 0 1 91.305 52.445 A 9.074 9.074 0 0 1 91.809 52.568 Q 92.324 52.71 92.663 52.883 Z M 63.763 53.803 A 5.108 5.108 0 0 0 62.774 53.892 Q 61.664 54.112 61.08 54.871 Q 60.259 55.938 60.259 58.468 Q 60.259 60.998 61.102 62.088 A 2.637 2.637 0 0 0 62.44 62.99 Q 63.036 63.177 63.807 63.177 Q 65.482 63.177 66.304 61.956 Q 66.89 61.084 67.058 59.667 A 10.416 10.416 0 0 0 67.125 58.446 A 10.74 10.74 0 0 0 67.06 57.222 Q 66.894 55.779 66.304 54.953 Q 65.482 53.803 63.763 53.803 Z M 79.095 59.662 L 79.095 58.578 L 77.277 58.654 Q 75.108 58.731 74.15 59.328 A 1.94 1.94 0 0 0 73.226 60.735 A 2.871 2.871 0 0 0 73.192 61.184 A 2.598 2.598 0 0 0 73.256 61.78 Q 73.388 62.339 73.789 62.684 A 1.979 1.979 0 0 0 74.53 63.078 Q 74.824 63.165 75.175 63.19 A 4.089 4.089 0 0 0 75.459 63.199 Q 77.156 63.199 78.125 62.268 Q 79.089 61.343 79.095 59.68 A 5.781 5.781 0 0 0 79.095 59.662 Z" id="back_labelLayer" stroke="#777777" fill="#777777" style="stroke:#777777;fill:#777777" vector-effect="non-scaling-stroke"/><path d="M 178.989 57.369 L 178.584 57.369 L 178.584 55.638 Q 178.584 55.429 178.523 55.288 A 0.482 0.482 0 0 0 178.435 55.15 Q 178.286 54.988 177.969 54.988 Q 177.693 54.988 177.514 55.086 A 0.567 0.567 0 0 0 177.352 55.218 A 0.674 0.674 0 0 0 177.238 55.421 Q 177.158 55.635 177.158 55.97 L 177.158 57.369 L 176.753 57.369 L 176.753 53.57 L 177.158 53.57 L 177.158 54.72 A 3.646 3.646 0 0 1 177.156 54.86 Q 177.151 54.977 177.139 55.064 L 177.163 55.064 Q 177.283 54.871 177.504 54.76 Q 177.724 54.649 178.008 54.649 A 1.644 1.644 0 0 1 178.284 54.671 Q 178.573 54.72 178.744 54.882 A 0.706 0.706 0 0 1 178.918 55.156 Q 178.96 55.269 178.977 55.41 A 1.753 1.753 0 0 1 178.989 55.623 L 178.989 57.369 Z M 175.278 54.693 L 176.203 54.693 L 176.203 54.949 L 175.708 55.008 A 0.659 0.659 0 0 1 175.765 55.093 Q 175.79 55.137 175.813 55.189 A 1.249 1.249 0 0 1 175.83 55.231 A 0.78 0.78 0 0 1 175.876 55.418 A 1.001 1.001 0 0 1 175.884 55.543 A 0.929 0.929 0 0 1 175.841 55.831 A 0.751 0.751 0 0 1 175.615 56.17 A 0.899 0.899 0 0 1 175.262 56.356 Q 175.128 56.394 174.969 56.402 A 1.76 1.76 0 0 1 174.878 56.404 Q 174.758 56.404 174.653 56.385 A 0.721 0.721 0 0 0 174.537 56.46 Q 174.477 56.509 174.442 56.564 A 0.305 0.305 0 0 0 174.394 56.729 A 0.21 0.21 0 0 0 174.405 56.798 Q 174.425 56.857 174.485 56.892 Q 174.558 56.934 174.714 56.942 A 1.542 1.542 0 0 0 174.795 56.944 L 175.268 56.944 Q 175.703 56.944 175.936 57.127 A 0.593 0.593 0 0 1 176.156 57.505 A 0.89 0.89 0 0 1 176.169 57.659 A 0.877 0.877 0 0 1 176.119 57.963 Q 176.038 58.184 175.827 58.328 A 0.964 0.964 0 0 1 175.813 58.337 A 1.215 1.215 0 0 1 175.5 58.479 Q 175.345 58.526 175.157 58.549 A 3.212 3.212 0 0 1 174.773 58.57 A 2.271 2.271 0 0 1 174.468 58.551 Q 174.159 58.509 173.963 58.375 Q 173.697 58.192 173.68 57.868 A 0.856 0.856 0 0 1 173.679 57.823 A 0.62 0.62 0 0 1 173.835 57.401 Q 173.992 57.222 174.275 57.159 A 0.421 0.421 0 0 1 174.111 57.027 A 0.5 0.5 0 0 1 174.103 57.015 A 0.376 0.376 0 0 1 174.034 56.812 A 0.465 0.465 0 0 1 174.033 56.788 A 0.463 0.463 0 0 1 174.056 56.638 A 0.411 0.411 0 0 1 174.111 56.531 Q 174.189 56.422 174.358 56.319 A 0.71 0.71 0 0 1 174.049 56.072 A 0.881 0.881 0 0 1 174.02 56.028 A 0.838 0.838 0 0 1 173.891 55.625 A 1.023 1.023 0 0 1 173.889 55.56 A 1.171 1.171 0 0 1 173.92 55.283 A 0.77 0.77 0 0 1 174.153 54.882 Q 174.38 54.677 174.772 54.649 A 1.79 1.79 0 0 1 174.9 54.644 A 1.553 1.553 0 0 1 175.105 54.657 A 1.183 1.183 0 0 1 175.278 54.693 Z M 181.052 57.034 L 181.052 57.344 A 0.399 0.399 0 0 1 181.005 57.363 Q 180.954 57.38 180.882 57.393 A 1.515 1.515 0 0 1 180.858 57.397 Q 180.738 57.416 180.641 57.418 A 1.038 1.038 0 0 1 180.627 57.418 A 1.059 1.059 0 0 1 180.315 57.376 Q 179.851 57.232 179.851 56.6 L 179.851 55.008 L 179.468 55.008 L 179.468 54.813 L 179.851 54.644 L 180.022 54.073 L 180.256 54.073 L 180.256 54.693 L 181.033 54.693 L 181.033 55.008 L 180.256 55.008 L 180.256 56.583 A 0.816 0.816 0 0 0 180.268 56.726 Q 180.293 56.866 180.371 56.954 A 0.376 0.376 0 0 0 180.602 57.077 A 0.542 0.542 0 0 0 180.686 57.083 A 1.331 1.331 0 0 0 180.881 57.069 A 1.226 1.226 0 0 0 180.893 57.067 A 2.192 2.192 0 0 0 180.952 57.057 Q 181.008 57.047 181.047 57.036 A 0.61 0.61 0 0 0 181.052 57.034 Z M 172.248 54.674 L 172.192 55.049 Q 172.054 55.019 171.943 55.014 A 0.951 0.951 0 0 0 171.899 55.013 A 0.702 0.702 0 0 0 171.38 55.237 A 0.961 0.961 0 0 0 171.344 55.277 A 0.925 0.925 0 0 0 171.121 55.796 A 1.23 1.23 0 0 0 171.113 55.933 L 171.113 57.369 L 170.708 57.369 L 170.708 54.693 L 171.042 54.693 L 171.089 55.189 L 171.108 55.189 A 1.369 1.369 0 0 1 171.261 54.97 A 1.045 1.045 0 0 1 171.467 54.786 Q 171.677 54.644 171.929 54.644 A 1.861 1.861 0 0 1 172.095 54.651 A 1.358 1.358 0 0 1 172.248 54.674 Z M 173.154 54.693 L 173.154 57.369 L 172.749 57.369 L 172.749 54.693 L 173.154 54.693 Z M 175.139 57.308 L 174.653 57.308 A 0.932 0.932 0 0 0 174.485 57.322 Q 174.327 57.351 174.224 57.44 A 0.427 0.427 0 0 0 174.083 57.682 A 0.648 0.648 0 0 0 174.07 57.818 A 0.407 0.407 0 0 0 174.097 57.969 Q 174.14 58.078 174.253 58.148 A 0.649 0.649 0 0 0 174.412 58.216 Q 174.564 58.26 174.778 58.26 A 2.724 2.724 0 0 0 175.044 58.248 Q 175.31 58.222 175.478 58.138 A 0.673 0.673 0 0 0 175.533 58.107 A 0.591 0.591 0 0 0 175.67 57.993 A 0.443 0.443 0 0 0 175.779 57.694 A 0.548 0.548 0 0 0 175.769 57.585 Q 175.756 57.522 175.727 57.475 A 0.255 0.255 0 0 0 175.644 57.392 A 0.384 0.384 0 0 0 175.553 57.352 Q 175.456 57.322 175.303 57.313 A 2.579 2.579 0 0 0 175.139 57.308 Z M 174.38 55.896 A 0.434 0.434 0 0 0 174.448 55.975 A 0.524 0.524 0 0 0 174.659 56.089 Q 174.739 56.112 174.835 56.117 A 1.044 1.044 0 0 0 174.89 56.119 A 0.883 0.883 0 0 0 175.121 56.091 Q 175.483 55.993 175.483 55.543 A 0.871 0.871 0 0 0 175.453 55.304 Q 175.377 55.036 175.105 54.965 A 0.881 0.881 0 0 0 174.883 54.94 A 0.85 0.85 0 0 0 174.709 54.956 Q 174.603 54.978 174.522 55.03 A 0.466 0.466 0 0 0 174.443 55.093 A 0.486 0.486 0 0 0 174.326 55.292 Q 174.301 55.368 174.293 55.462 A 1.066 1.066 0 0 0 174.289 55.55 Q 174.289 55.762 174.38 55.896 Z M 172.783 53.764 A 0.19 0.19 0 0 0 172.741 53.824 Q 172.715 53.881 172.715 53.968 A 0.478 0.478 0 0 0 172.717 54.014 Q 172.727 54.116 172.783 54.172 Q 172.851 54.239 172.954 54.239 A 0.236 0.236 0 0 0 173.122 54.172 A 0.198 0.198 0 0 0 173.161 54.121 Q 173.193 54.06 173.193 53.968 Q 173.193 53.831 173.122 53.765 A 0.239 0.239 0 0 0 172.954 53.699 A 0.309 0.309 0 0 0 172.933 53.7 A 0.234 0.234 0 0 0 172.783 53.764 Z" id="right_labelLayer" stroke="#777777" fill="#777777" style="stroke:#777777;fill:#777777" vector-effect="non-scaling-stroke"/><path d="M 351.76 150.28 188.38 150.28" id="bottom_outsideCutPath" stroke="#FF0000" stroke-width="0.1" style="stroke:#FF0000;stroke-width:0.1" vector-effect="non-scaling-stroke"/><path d="M 282.243 171.555 L 281.643 171.555 L 281.643 168.979 A 1.769 1.769 0 0 0 281.625 168.718 Q 281.606 168.586 281.564 168.478 A 0.725 0.725 0 0 0 281.441 168.269 Q 281.264 168.062 280.916 168.036 A 1.392 1.392 0 0 0 280.812 168.032 A 1.543 1.543 0 0 0 280.498 168.062 Q 280.311 168.101 280.171 168.19 A 0.794 0.794 0 0 0 279.985 168.354 Q 279.719 168.674 279.717 169.337 A 3.382 3.382 0 0 0 279.717 169.344 L 279.717 171.555 L 279.118 171.555 L 279.118 168.979 A 1.769 1.769 0 0 0 279.1 168.718 Q 279.08 168.586 279.038 168.478 A 0.725 0.725 0 0 0 278.915 168.269 A 0.629 0.629 0 0 0 278.626 168.081 Q 278.522 168.046 278.395 168.036 A 1.405 1.405 0 0 0 278.283 168.032 A 1.49 1.49 0 0 0 277.975 168.062 Q 277.785 168.102 277.643 168.196 A 0.786 0.786 0 0 0 277.457 168.37 A 1.006 1.006 0 0 0 277.308 168.653 Q 277.211 168.927 277.198 169.337 A 4.176 4.176 0 0 0 277.195 169.477 L 277.195 171.555 L 276.596 171.555 L 276.596 167.595 L 277.083 167.595 L 277.181 168.137 L 277.21 168.137 A 1.179 1.179 0 0 1 277.689 167.685 A 1.424 1.424 0 0 1 278.251 167.527 A 1.72 1.72 0 0 1 278.381 167.522 Q 278.956 167.522 279.284 167.78 A 1.024 1.024 0 0 1 279.595 168.195 L 279.623 168.195 A 1.252 1.252 0 0 1 280.095 167.726 A 1.505 1.505 0 0 1 280.137 167.703 A 1.518 1.518 0 0 1 280.693 167.534 A 1.893 1.893 0 0 1 280.903 167.522 Q 281.575 167.522 281.909 167.868 Q 282.152 168.119 282.218 168.589 A 2.751 2.751 0 0 1 282.243 168.971 L 282.243 171.555 Z M 258.497 171.045 L 258.453 171.045 L 258.327 171.555 L 257.897 171.555 L 257.897 165.933 L 258.497 165.933 L 258.497 167.298 A 12.505 12.505 0 0 1 258.49 167.721 Q 258.483 167.921 258.47 168.099 A 7.491 7.491 0 0 1 258.468 168.122 L 258.497 168.122 A 1.364 1.364 0 0 1 259.492 167.544 A 2.049 2.049 0 0 1 259.74 167.53 Q 260.52 167.53 260.952 168.063 A 1.767 1.767 0 0 1 261.262 168.66 Q 261.384 169.053 261.384 169.571 Q 261.384 170.547 260.948 171.087 A 1.42 1.42 0 0 1 259.939 171.618 A 2.034 2.034 0 0 1 259.74 171.627 Q 259.353 171.627 259.033 171.484 Q 258.713 171.342 258.497 171.045 Z M 268.722 171.06 L 268.722 171.519 Q 268.625 171.566 268.435 171.596 Q 268.258 171.625 268.114 171.627 A 1.536 1.536 0 0 1 268.094 171.627 A 1.567 1.567 0 0 1 267.632 171.565 Q 267.124 171.408 266.992 170.857 A 1.885 1.885 0 0 1 266.944 170.417 L 266.944 168.061 L 266.377 168.061 L 266.377 167.772 L 266.944 167.522 L 267.197 166.677 L 267.544 166.677 L 267.544 167.595 L 268.693 167.595 L 268.693 168.061 L 267.544 168.061 L 267.544 170.391 A 1.208 1.208 0 0 0 267.562 170.604 Q 267.583 170.72 267.628 170.812 A 0.582 0.582 0 0 0 267.714 170.941 A 0.557 0.557 0 0 0 268.057 171.123 A 0.802 0.802 0 0 0 268.18 171.132 A 1.97 1.97 0 0 0 268.469 171.112 A 1.811 1.811 0 0 0 268.487 171.109 Q 268.629 171.086 268.714 171.062 A 0.902 0.902 0 0 0 268.722 171.06 Z M 271.335 171.06 L 271.335 171.519 Q 271.237 171.566 271.047 171.596 Q 270.87 171.625 270.726 171.627 A 1.536 1.536 0 0 1 270.706 171.627 A 1.567 1.567 0 0 1 270.244 171.565 Q 269.737 171.408 269.604 170.857 A 1.885 1.885 0 0 1 269.557 170.417 L 269.557 168.061 L 268.99 168.061 L 268.99 167.772 L 269.557 167.522 L 269.81 166.677 L 270.157 166.677 L 270.157 167.595 L 271.306 167.595 L 271.306 168.061 L 270.157 168.061 L 270.157 170.391 A 1.208 1.208 0 0 0 270.174 170.604 Q 270.195 170.72 270.241 170.812 A 0.582 0.582 0 0 0 270.327 170.941 A 0.557 0.557 0 0 0 270.669 171.123 A 0.802 0.802 0 0 0 270.793 171.132 A 1.97 1.97 0 0 0 271.081 171.112 A 1.811 1.811 0 0 0 271.1 171.109 Q 271.241 171.086 271.327 171.062 A 0.902 0.902 0 0 0 271.335 171.06 Z M 265.362 171.083 A 1.673 1.673 0 0 0 265.561 170.81 Q 265.85 170.316 265.85 169.571 A 3.52 3.52 0 0 0 265.848 169.476 Q 265.839 169.146 265.768 168.866 A 1.868 1.868 0 0 0 265.36 168.075 A 1.57 1.57 0 0 0 264.631 167.605 A 2.015 2.015 0 0 0 264.039 167.522 A 2.33 2.33 0 0 0 263.621 167.558 A 1.587 1.587 0 0 0 262.695 168.063 A 1.657 1.657 0 0 0 262.492 168.345 Q 262.211 168.834 262.211 169.571 Q 262.211 170.196 262.435 170.662 A 1.971 1.971 0 0 0 262.479 170.748 A 1.624 1.624 0 0 0 263.071 171.378 A 1.67 1.67 0 0 0 263.454 171.548 A 1.926 1.926 0 0 0 264.014 171.627 A 2.329 2.329 0 0 0 264.421 171.593 A 1.599 1.599 0 0 0 265.362 171.083 Z M 275.056 171.083 A 1.673 1.673 0 0 0 275.256 170.81 Q 275.544 170.316 275.544 169.571 A 3.52 3.52 0 0 0 275.543 169.476 Q 275.534 169.146 275.463 168.866 A 1.868 1.868 0 0 0 275.055 168.075 A 1.57 1.57 0 0 0 274.326 167.605 A 2.015 2.015 0 0 0 273.734 167.522 A 2.33 2.33 0 0 0 273.315 167.558 A 1.587 1.587 0 0 0 272.39 168.063 A 1.657 1.657 0 0 0 272.186 168.345 Q 271.906 168.834 271.906 169.571 Q 271.906 170.196 272.13 170.662 A 1.971 1.971 0 0 0 272.173 170.748 A 1.624 1.624 0 0 0 272.765 171.378 A 1.67 1.67 0 0 0 273.149 171.548 A 1.926 1.926 0 0 0 273.709 171.627 A 2.329 2.329 0 0 0 274.115 171.593 A 1.599 1.599 0 0 0 275.056 171.083 Z M 262.833 169.571 A 3.037 3.037 0 0 0 262.861 170.005 Q 262.893 170.225 262.96 170.404 A 1.258 1.258 0 0 0 263.136 170.727 A 0.983 0.983 0 0 0 263.776 171.105 A 1.49 1.49 0 0 0 264.029 171.125 A 1.393 1.393 0 0 0 264.396 171.079 A 0.97 0.97 0 0 0 264.923 170.729 Q 265.228 170.334 265.228 169.571 A 2.993 2.993 0 0 0 265.2 169.145 Q 265.169 168.928 265.103 168.752 A 1.235 1.235 0 0 0 264.923 168.424 A 0.987 0.987 0 0 0 264.309 168.058 A 1.513 1.513 0 0 0 264.021 168.032 A 1.427 1.427 0 0 0 263.666 168.074 A 0.955 0.955 0 0 0 263.132 168.419 Q 262.917 168.697 262.856 169.172 A 3.169 3.169 0 0 0 262.833 169.571 Z M 272.527 169.571 A 3.037 3.037 0 0 0 272.556 170.005 Q 272.588 170.225 272.655 170.404 A 1.258 1.258 0 0 0 272.831 170.727 A 0.983 0.983 0 0 0 273.471 171.105 A 1.49 1.49 0 0 0 273.723 171.125 A 1.393 1.393 0 0 0 274.091 171.079 A 0.97 0.97 0 0 0 274.617 170.729 Q 274.923 170.334 274.923 169.571 A 2.993 2.993 0 0 0 274.894 169.145 Q 274.863 168.928 274.797 168.752 A 1.235 1.235 0 0 0 274.617 168.424 A 0.987 0.987 0 0 0 274.004 168.058 A 1.513 1.513 0 0 0 273.716 168.032 A 1.427 1.427 0 0 0 273.36 168.074 A 0.955 0.955 0 0 0 272.827 168.419 Q 272.611 168.697 272.551 169.172 A 3.169 3.169 0 0 0 272.527 169.571 Z M 259.653 168.032 Q 259.039 168.032 258.768 168.384 A 1.027 1.027 0 0 0 258.619 168.667 Q 258.519 168.948 258.501 169.376 A 4.621 4.621 0 0 0 258.497 169.571 A 3.966 3.966 0 0 0 258.516 169.981 Q 258.571 170.501 258.775 170.765 A 0.87 0.87 0 0 0 259.216 171.063 Q 259.364 171.11 259.544 171.121 A 1.929 1.929 0 0 0 259.667 171.125 A 1.196 1.196 0 0 0 260.007 171.079 A 0.863 0.863 0 0 0 260.491 170.722 Q 260.685 170.434 260.74 169.967 A 3.437 3.437 0 0 0 260.762 169.564 A 3.544 3.544 0 0 0 260.741 169.16 Q 260.69 168.719 260.519 168.452 A 0.995 0.995 0 0 0 260.491 168.411 A 0.875 0.875 0 0 0 259.934 168.059 A 1.387 1.387 0 0 0 259.653 168.032 Z" id="bottom_labelLayer" stroke="#777777" fill="#777777" style="stroke:#777777;fill:#777777" vector-effect="non-scaling-stroke"/></g></svg>