0
SECTION
2
HEADER
9
$INSUNITS
70
4
0
ENDSEC
0
SECTION
2
TABLES
0
TABLE
2
LTYPE
0
LTYPE
72
65
70
64
2
CONTINUOUS
3
______
73
0
40
0
0
ENDTAB
0
TABLE
2
LAYER
0
ENDTAB
0
ENDSEC
0
SECTION
2
ENTITIES
0
LINE
8
front_outsideCutPath
10
0
20
0
11
0
21
224.28
0
LINE
8
front_outsideCutPath
10
0
20
0
11
351.76
21
0
0
LINE
8
front_outsideCutPath
10
163.38
20
0
11
163.38
21
224.28
0
LINE
8
front_outsideCutPath
10
0
20
112.14
11
188.38
21
112.14
0
LINE
8
front_labelLayer
10
63.1113369
20
59.6019904
11
63.1113369
21
58.1892892
0
LINE
8
front_labelLayer
10
63.1113369
20
58.1892892
11
60.05596
21
58.1892892
0
LINE
8
front_labelLayer
10
60.05596
20
58.1892892
11
60.05596
21
47.599506
0
LINE
8
front_labelLayer
10
60.05596
20
47.599506
11
58.2380654
21
47.599506
0
LINE
8
front_labelLayer
10
58.2380654
20
47.599506
11
58.2380654
21
58.1892892
0
LINE
8
front_labelLayer
10
58.2380654
20
58.1892892
11
56.0916357
21
58.1892892
0
LINE
8
front_labelLayer
10
56.0916357
20
58.1892892
11
56.0916357
21
59.0106271
0
LINE
8
front_labelLayer
10
56.0916357
20
59.0106271
11
58.2380654
21
59.6676974
0
LINE
8
front_labelLayer
10
58.2380654
20
59.6676974
11
58.2380654
21
60.3357189
0
LINE
8
front_labelLayer
10
64.3378682
20
64.3767013
11
63.8669678
21
62.9201954
0
LINE
8
front_labelLayer
10
60.05596
20
60.3795236
11
60.05596
21
59.6019904
0
LINE
8
front_labelLayer
10
60.05596
20
59.6019904
11
63.1113369
21
59.6019904
0
ARC
8
front_labelLayer
10
65.605364
20
60.4204171
40
7.3677854
50
167.5776095
51
180.6586724
0
ARC
8
front_labelLayer
10
62.1407824
20
61.2281558
40
3.8108059
50
141.7433709
51
168.2322188
0
ARC
8
front_labelLayer
10
61.5766829
20
61.5225746
40
3.187738
50
98.255144
51
139.6203426
0
ARC
8
front_labelLayer
10
62.0719743
20
59.2345218
40
5.5255624
50
89.6696889
51
99.9314378
0
ARC
8
front_labelLayer
10
62.0733574
20
58.9060332
40
5.8540384
50
81.5641027
51
89.7017598
0
ARC
8
front_labelLayer
10
61.6618043
20
56.0348285
40
8.7545656
50
75.9739832
51
81.6564707
0
ARC
8
front_labelLayer
10
60.9555519
20
53.1054397
40
11.7678122
50
73.2963825
51
76.0946232
0
ARC
8
front_labelLayer
10
61.1333926
20
54.526388
40
8.8277085
50
71.961347
51
76.5918071
0
ARC
8
front_labelLayer
10
61.8182666
20
57.431669
40
5.8428088
50
76.5183516
51
83.0216719
0
ARC
8
front_labelLayer
10
62.05683
20
59.3501455
40
3.9095618
50
83.0760872
51
89.792692
0
ARC
8
front_labelLayer
10
62.0489794
20
60.8081444
40
2.4516361
50
89.485932
51
103.4197141
0
ARC
8
front_labelLayer
10
61.827947
20
61.6573333
40
1.5744375
50
102.7677376
51
144.3380318
0
ARC
8
front_labelLayer
10
62.2732348
20
61.3708316
40
2.1034229
50
145.0688675
51
162.1801819
0
ARC
8
front_labelLayer
10
63.799982
20
60.8571579
40
3.7141832
50
161.8437778
51
171.7846904
0
ARC
8
front_labelLayer
10
66.2900769
20
60.4831512
40
6.2321845
50
171.652758
51
178.4383682
0
ARC
8
front_labelLayer
10
68.6386572
20
60.3829944
40
8.5826981
50
178.1972697
51
180.0231704
0
LINE
8
front_labelLayer
10
72.2117607
20
59.6895997
11
71.9598838
21
58.0031193
0
LINE
8
front_labelLayer
10
67.1194658
20
54.038795
11
67.1194658
21
47.599506
0
LINE
8
front_labelLayer
10
67.1194658
20
47.599506
11
65.3015713
21
47.599506
0
LINE
8
front_labelLayer
10
65.3015713
20
47.599506
11
65.3015713
21
59.6019904
0
LINE
8
front_labelLayer
10
65.3015713
20
59.6019904
11
66.8018818
21
59.6019904
0
LINE
8
front_labelLayer
10
66.8018818
20
59.6019904
11
67.0099541
21
57.3789025
0
LINE
8
front_labelLayer
10
67.0099541
20
57.3789025
11
67.0975635
21
57.3789025
0
ARC
8
front_labelLayer
10
70.7958144
20
51.4753507
40
8.3456839
50
84.9922859
51
90.1280873
0
ARC
8
front_labelLayer
10
70.9962353
20
53.7208582
40
6.0912542
50
78.4892043
51
85.0265799
0
ARC
8
front_labelLayer
10
70.2183111
20
50.1826664
40
8.0120259
50
77.4454031
51
81.6360169
0
ARC
8
front_labelLayer
10
70.567395
20
52.5888572
40
5.5806512
50
81.5884175
51
87.1916545
0
ARC
8
front_labelLayer
10
70.6432115
20
53.9035194
40
4.2638682
50
87.3436765
51
89.9659812
0
ARC
8
front_labelLayer
10
70.6255966
20
55.0175785
40
3.1498727
50
89.6335334
51
137.088081
0
ARC
8
front_labelLayer
10
71.3986676
20
54.1482459
40
4.3093889
50
135.620929
51
138.8377112
0
ARC
8
front_labelLayer
10
71.2853592
20
54.2588438
40
4.1512991
50
138.9575735
51
174.5422236
0
ARC
8
front_labelLayer
10
72.637341
20
54.0472983
40
5.5178815
50
173.6907688
51
180.0882952
0
ARC
8
front_labelLayer
10
72.446192
20
54.3655099
40
6.1390848
50
139.4139256
51
150.6032909
0
ARC
8
front_labelLayer
10
71.3454511
20
55.3087303
40
4.6895003
50
124.2321386
51
139.4161093
0
ARC
8
front_labelLayer
10
70.7568962
20
56.197153
40
3.6239175
50
89.6796624
51
124.4405686
0
ARC
8
front_labelLayer
10
75.4266094
20
53.5483943
40
9.3901636
50
349.1761903
51
0.3862698
0
ARC
8
front_labelLayer
10
78.5880526
20
52.9181537
40
6.1666641
50
330.2507074
51
349.4116522
0
ARC
8
front_labelLayer
10
79.5609784
20
52.412467
40
5.0712288
50
318.1439845
51
329.7566121
0
ARC
8
front_labelLayer
10
79.7365865
20
52.271735
40
4.8465425
50
278.8959142
51
317.9979134
0
ARC
8
front_labelLayer
10
79.2841288
20
54.4395087
40
7.0590932
50
269.7502956
51
279.8033111
0
ARC
8
front_labelLayer
10
79.2107496
20
53.2180918
40
5.8377648
50
253.5436873
51
270.4182526
0
ARC
8
front_labelLayer
10
79.0164239
20
52.4663914
40
5.0618775
50
238.8115615
51
253.2428315
0
ARC
8
front_labelLayer
10
78.9537059
20
52.3402658
40
4.9215159
50
207.7947041
51
238.6757998
0
ARC
8
front_labelLayer
10
79.8537713
20
52.8915
40
5.9751646
50
205.6560593
51
208.4460996
0
ARC
8
front_labelLayer
10
80.5468098
20
53.180252
40
6.725014
50
188.9102402
51
205.3171425
0
ARC
8
front_labelLayer
10
82.882841
20
53.5759024
40
9.0941821
50
179.774469
51
189.0932945
0
ARC
8
front_labelLayer
10
83.2274484
20
53.6756299
40
9.4389354
50
169.2442891
51
180.388071
0
ARC
8
front_labelLayer
10
80.0220573
20
54.3092212
40
6.1716631
50
150.7111432
51
169.4695485
0
ARC
8
front_labelLayer
10
78.9988034
20
54.8347003
40
5.0223244
50
138.1759532
51
150.2287439
0
ARC
8
front_labelLayer
10
78.8285893
20
54.9653192
40
4.808406
50
99.1759351
51
137.9832779
0
ARC
8
front_labelLayer
10
79.2970742
20
52.7605817
40
7.0605089
50
89.732625
51
100.0759856
0
ARC
8
front_labelLayer
10
79.3907099
20
53.7127334
40
6.1085819
50
73.5222657
51
90.5692304
0
ARC
8
front_labelLayer
10
79.7489409
20
55.0142808
40
4.7589486
50
41.1445692
51
73.2133765
0
ARC
8
front_labelLayer
10
79.0651042
20
54.4265329
40
5.6606332
50
13.5014401
51
41.0703415
0
ARC
8
front_labelLayer
10
76.4231008
20
53.7351574
40
8.3912206
50
1.127726
51
13.879995
0
ARC
8
front_labelLayer
10
74.1478887
20
53.6132149
40
10.6686709
50
359.9918608
51
1.5420071
0
ARC
8
front_labelLayer
10
84.8779927
20
53.5644576
40
9.2057829
50
179.7059712
51
187.916086
0
ARC
8
front_labelLayer
10
81.5015869
20
53.0794377
40
5.7947738
50
187.7639116
51
200.0976971
0
ARC
8
front_labelLayer
10
79.6415579
20
52.3979192
40
3.8138209
50
200.0845859
51
216.9131468
0
ARC
8
front_labelLayer
10
78.9623338
20
51.9129226
40
2.9795267
50
217.3009576
51
261.709908
0
ARC
8
front_labelLayer
10
79.2776519
20
53.4175806
40
4.5149275
50
260.5033016
51
270.2476783
0
ARC
8
front_labelLayer
10
79.3378374
20
53.1250003
40
4.2225008
50
269.448155
51
284.7255662
0
ARC
8
front_labelLayer
10
79.6721075
20
51.8853002
40
2.9385625
50
284.5662293
51
322.6333829
0
ARC
8
front_labelLayer
10
78.8905629
20
52.4499311
40
3.902475
50
323.0089295
51
342.6390366
0
ARC
8
front_labelLayer
10
76.6551847
20
53.1805157
40
6.2540908
50
342.3615737
51
353.753755
0
ARC
8
front_labelLayer
10
73.3572402
20
53.5780383
40
9.575777
50
353.5363133
51
0.2014079
0
ARC
8
front_labelLayer
10
73.8625726
20
53.6579962
40
9.0705036
50
359.7075549
51
7.8972794
0
ARC
8
front_labelLayer
10
77.1844416
20
54.1342195
40
5.7147278
50
7.7439794
51
20.0690295
0
ARC
8
front_labelLayer
10
79.0355141
20
54.8134949
40
3.742959
50
20.0257022
51
37.435053
0
ARC
8
front_labelLayer
10
79.6496875
20
55.2493034
40
2.990492
50
37.9577621
51
80.4006185
0
ARC
8
front_labelLayer
10
79.300671
20
53.6920207
40
4.5849482
50
79.3453555
51
90.3174682
0
ARC
8
front_labelLayer
10
79.2360465
20
53.9506981
40
4.3263782
50
89.4805866
51
103.880494
0
ARC
8
front_labelLayer
10
78.87252
20
55.3350095
40
2.8953567
50
103.468528
51
142.3118868
0
ARC
8
front_labelLayer
10
79.5792461
20
54.8379898
40
3.7586839
50
142.9025765
51
162.3749632
0
ARC
8
front_labelLayer
10
81.8061468
20
54.0958806
40
6.1058402
50
162.0653133
51
173.1674758
0
ARC
8
front_labelLayer
10
85.2784288
20
53.6530094
40
9.6061866
50
173.0086012
51
180.2463936
0
LINE
8
front_labelLayer
10
98.034624
20
47.599506
11
96.2167295
21
47.599506
0
LINE
8
front_labelLayer
10
96.2167295
20
47.599506
11
96.2167295
21
55.3638868
0
LINE
8
front_labelLayer
10
89.8212451
20
53.8964298
11
89.8212451
21
47.599506
0
LINE
8
front_labelLayer
10
89.8212451
20
47.599506
11
88.0033506
21
47.599506
0
LINE
8
front_labelLayer
10
88.0033506
20
47.599506
11
88.0033506
21
59.6019904
0
LINE
8
front_labelLayer
10
88.0033506
20
59.6019904
11
89.4817588
21
59.6019904
0
LINE
8
front_labelLayer
10
89.4817588
20
59.6019904
11
89.7774404
21
57.9593146
0
LINE
8
front_labelLayer
10
89.7774404
20
57.9593146
11
89.8650498
21
57.9593146
0
LINE
8
front_labelLayer
10
98.034624
20
55.4295939
11
98.034624
21
47.599506
0
ARC
8
front_labelLayer
10
91.0780931
20
55.393357
40
5.1387209
50
359.671411
51
8.6877404
0
ARC
8
front_labelLayer
10
92.9826413
20
55.695407
40
3.2104192
50
8.4931447
51
22.657987
0
ARC
8
front_labelLayer
10
93.9502921
20
56.0975331
40
2.1625408
50
22.7024268
51
42.3419667
0
ARC
8
front_labelLayer
10
94.0590582
20
56.1464588
40
2.0495292
50
43.3790921
51
71.5385975
0
ARC
8
front_labelLayer
10
93.6523222
20
55.0099322
40
3.2564693
50
71.0828046
51
84.3691353
0
ARC
8
front_labelLayer
10
93.4697406
20
53.4575682
40
4.8193471
50
84.0197934
51
90.1510628
0
ARC
8
front_labelLayer
10
93.4179814
20
52.7751044
40
5.5019327
50
89.5933101
51
100.3717846
0
ARC
8
front_labelLayer
10
93.0291646
20
54.8151014
40
3.4253019
50
100.1176442
51
118.1602558
0
ARC
8
front_labelLayer
10
92.637334
20
55.5834487
40
2.5630403
50
118.5439357
51
139.192689
0
ARC
8
front_labelLayer
10
92.9789937
20
55.3541912
40
2.9718868
50
140.1519313
51
160.3146211
0
ARC
8
front_labelLayer
10
95.0421087
20
54.5814361
40
5.1748354
50
159.9534282
51
171.3801249
0
ARC
8
front_labelLayer
10
98.4122871
20
54.0396906
40
8.5881959
50
171.1765814
51
178.3217564
0
ARC
8
front_labelLayer
10
101.4673255
20
53.9012324
40
11.6460815
50
178.0810479
51
180.0236274
0
ARC
8
front_labelLayer
10
92.9748371
20
55.9897826
40
3.6810098
50
116.9443005
51
147.6525557
0
ARC
8
front_labelLayer
10
93.3578597
20
55.3491845
40
4.425922
50
115.8070942
51
117.6067895
0
ARC
8
front_labelLayer
10
93.5538567
20
54.8922341
40
4.9226756
50
94.3226637
51
115.5454373
0
ARC
8
front_labelLayer
10
93.6716843
20
53.8685018
40
5.9525136
50
89.957905
51
94.7108668
0
ARC
8
front_labelLayer
10
93.7203808
20
52.6437846
40
7.1773661
50
80.558548
51
90.3538273
0
ARC
8
front_labelLayer
10
94.1689209
20
55.2419104
40
4.5408857
50
65.1094118
51
80.7638186
0
ARC
8
front_labelLayer
10
94.6932436
20
56.4032682
40
3.266749
50
46.5584475
51
64.8782434
0
ARC
8
front_labelLayer
10
94.7352055
20
56.5242419
40
3.1505004
50
19.3848846
51
45.599702
0
ARC
8
front_labelLayer
10
92.9125336
20
55.840345
40
5.0969975
50
6.9633793
51
19.8363284
0
ARC
8
front_labelLayer
10
90.1014217
20
55.4623871
40
7.9332702
50
359.7631594
51
7.2115719
0
LINE
8
front_labelLayer
10
107.2883643
20
49.0998165
11
107.2883643
21
47.7090177
0
LINE
8
front_labelLayer
10
101.9003877
20
51.0491251
11
101.9003877
21
58.1892892
0
LINE
8
front_labelLayer
10
101.9003877
20
58.1892892
11
100.1810537
21
58.1892892
0
LINE
8
front_labelLayer
10
100.1810537
20
58.1892892
11
100.1810537
21
59.0653829
0
LINE
8
front_labelLayer
10
100.1810537
20
59.0653829
11
101.9003877
21
59.8210138
0
LINE
8
front_labelLayer
10
101.9003877
20
59.8210138
11
102.6669697
21
62.383588
0
LINE
8
front_labelLayer
10
102.6669697
20
62.383588
11
103.7182822
21
62.383588
0
LINE
8
front_labelLayer
10
103.7182822
20
62.383588
11
103.7182822
21
59.6019904
0
LINE
8
front_labelLayer
10
103.7182822
20
59.6019904
11
107.2007549
21
59.6019904
0
LINE
8
front_labelLayer
10
107.2007549
20
59.6019904
11
107.2007549
21
58.1892892
0
LINE
8
front_labelLayer
10
107.2007549
20
58.1892892
11
103.7182822
21
58.1892892
0
LINE
8
front_labelLayer
10
103.7182822
20
58.1892892
11
103.7182822
21
51.1257833
0
ARC
8
front_labelLayer
10
105.6581541
20
54.851002
40
5.9702219
50
269.8803686
51
278.3028354
0
ARC
8
front_labelLayer
10
105.7148314
20
54.3876279
40
5.503531
50
278.4155875
51
279.0080614
0
ARC
8
front_labelLayer
10
105.0451534
20
58.6658
40
9.8337948
50
278.9589467
51
280.5104357
0
ARC
8
front_labelLayer
10
105.683435
20
55.2409868
40
6.3500129
50
280.4848434
51
282.6267656
0
ARC
8
front_labelLayer
10
106.2433952
20
52.7531976
40
3.7999856
50
282.5877293
51
285.5795097
0
ARC
8
front_labelLayer
10
106.5252656
20
51.7167225
40
2.7258973
50
285.7236499
51
286.2568633
0
ARC
8
front_labelLayer
10
106.5240709
20
49.3255414
40
1.7880977
50
287.9888422
51
295.3048123
0
ARC
8
front_labelLayer
10
106.0928021
20
50.6303248
40
3.1622966
50
283.3069441
51
288.1198077
0
ARC
8
front_labelLayer
10
105.637204
20
52.53076
40
5.1165743
50
280.0070215
51
283.3735394
0
ARC
8
front_labelLayer
10
105.3321146
20
54.1865814
40
6.8002316
50
279.186364
51
280.1141755
0
ARC
8
front_labelLayer
10
105.1452559
20
55.2493645
40
7.8792291
50
275.5260249
51
279.2939335
0
ARC
8
front_labelLayer
10
105.3561153
20
53.046892
40
5.6666876
50
270.8932311
51
275.5484096
0
ARC
8
front_labelLayer
10
105.3826041
20
52.0412481
40
4.6607655
50
270.0031495
51
270.7603608
0
ARC
8
front_labelLayer
10
105.3095027
20
52.1279886
40
4.7480728
50
253.7847892
51
270.8852537
0
ARC
8
front_labelLayer
10
104.7469823
20
50.2095812
40
2.7489025
50
190.3817659
51
253.8772388
0
ARC
8
front_labelLayer
10
107.614138
20
50.9848094
40
5.7141121
50
179.3550881
51
192.8477593
0
ARC
8
front_labelLayer
10
107.3788469
20
51.1028888
40
3.6606363
50
179.6416552
51
189.75059
0
ARC
8
front_labelLayer
10
106.0865665
20
50.8723937
40
2.3480019
50
189.5479266
51
205.7873761
0
ARC
8
front_labelLayer
10
105.5555002
20
50.6275015
40
1.7633172
50
206.1294226
51
221.4083924
0
ARC
8
front_labelLayer
10
105.495954
20
50.5823192
40
1.6887811
50
221.594917
51
262.3505137
0
ARC
8
front_labelLayer
10
105.6375753
20
51.3105901
40
2.4298105
50
261.3266241
51
270.1913126
0
LINE
8
left_outsideCutPath
10
188.38
20
0
11
188.38
21
224.28
0
LINE
8
left_labelLayer
10
172.787959
20
57.9804533
11
172.787959
21
54.1816252
0
LINE
8
left_labelLayer
10
172.787959
20
54.1816252
11
172.3826855
21
54.1816252
0
LINE
8
left_labelLayer
10
172.3826855
20
54.1816252
11
172.3826855
21
57.9804533
0
LINE
8
left_labelLayer
10
172.3826855
20
57.9804533
11
172.787959
21
57.9804533
0
LINE
8
left_labelLayer
10
175.7615918
20
55.7026213
11
175.7615918
21
55.4462736
0
LINE
8
left_labelLayer
10
175.7615918
20
55.4462736
11
173.9183301
21
55.4462736
0
LINE
8
left_labelLayer
10
175.6468457
20
54.667465
11
175.6468457
21
54.3061369
0
LINE
8
left_labelLayer
10
173.9280957
20
55.7758634
11
175.3270215
21
55.7758634
0
ARC
8
left_labelLayer
10
174.7643792
20
55.7076151
40
1.5748744
50
256.0088004
51
270.4848157
0
ARC
8
left_labelLayer
10
174.6496982
20
55.262397
40
1.1151438
50
223.5465863
51
256.1956754
0
ARC
8
left_labelLayer
10
174.7129612
20
55.308377
40
1.1927196
50
194.0877038
51
223.0538203
0
ARC
8
left_labelLayer
10
175.2926372
20
55.4668975
40
1.7935911
50
181.3574441
51
194.4919932
0
ARC
8
left_labelLayer
10
175.8132332
20
55.4970809
40
2.3148249
50
179.9885586
51
181.7990718
0
ARC
8
left_labelLayer
10
175.6264512
20
55.5118174
40
2.1280908
50
168.9539475
51
180.3843165
0
ARC
8
left_labelLayer
10
174.9314207
20
55.6533368
40
1.4188336
50
149.4071083
51
169.1853861
0
ARC
8
left_labelLayer
10
174.7377742
20
55.7556514
40
1.200116
50
140.1056099
51
148.9067443
0
ARC
8
left_labelLayer
10
174.6188069
20
55.8653335
40
1.0385233
50
92.4762588
51
140.5386223
0
ARC
8
left_labelLayer
10
174.671817
20
55.473652
40
1.4325828
50
89.9637009
51
93.9177355
0
ARC
8
left_labelLayer
10
174.6844699
20
55.6715809
40
1.2347095
50
74.2125748
51
90.5450382
0
ARC
8
left_labelLayer
10
174.7618031
20
55.9565089
40
0.9394947
50
41.2064711
51
74.0232724
0
ARC
8
left_labelLayer
10
174.6153462
20
55.8297622
40
1.1331782
50
11.5994283
51
41.1495697
0
ARC
8
left_labelLayer
10
174.1121392
20
55.7137121
40
1.6494899
50
359.6147505
51
12.0336637
0
ARC
8
left_labelLayer
10
175.5446253
20
55.4787708
40
1.6266199
50
181.1447515
51
190.8007418
0
ARC
8
left_labelLayer
10
174.9707695
20
55.3655893
40
1.041727
50
190.6005762
51
206.0275437
0
ARC
8
left_labelLayer
10
174.7168766
20
55.2455594
40
0.760922
50
206.295016
51
222.5558261
0
ARC
8
left_labelLayer
10
174.694381
20
55.2337811
40
0.7364146
50
223.0645044
51
258.1401473
0
ARC
8
left_labelLayer
10
174.7839419
20
55.6025584
40
1.1157891
50
257.5311994
51
270.4319409
0
ARC
8
left_labelLayer
10
174.7849421
20
56.6272609
40
2.1404728
50
270.1983886
51
292.2090272
0
ARC
8
left_labelLayer
10
174.6821193
20
56.9225509
40
2.4527759
50
291.8254309
51
293.1612526
0
ARC
8
left_labelLayer
10
174.6772528
20
56.5375135
40
2.4329308
50
287.902222
51
293.4862357
0
ARC
8
left_labelLayer
10
174.8537094
20
55.9930793
40
1.8606151
50
281.9936581
51
287.8850582
0
ARC
8
left_labelLayer
10
174.8964988
20
55.839279
40
1.7013093
50
275.9054094
51
281.6604124
0
ARC
8
left_labelLayer
10
174.8108609
20
56.6386333
40
2.5052341
50
271.912059
51
275.9726642
0
ARC
8
left_labelLayer
10
174.7796169
20
57.4344624
40
3.3016658
50
269.9668234
51
271.9931594
0
ARC
8
left_labelLayer
10
174.6600641
20
55.7680302
40
0.7988867
50
89.4421818
51
106.2089452
0
ARC
8
left_labelLayer
10
174.6120042
20
55.9432677
40
0.6172054
50
106.4657548
51
137.9175782
0
ARC
8
left_labelLayer
10
174.7497987
20
55.8222627
40
0.8005754
50
138.0995098
51
160.5866564
0
ARC
8
left_labelLayer
10
175.1040045
20
55.6919572
40
1.1779655
50
160.335389
51
172.5315255
0
ARC
8
left_labelLayer
10
175.4527836
20
55.6360703
40
1.5310832
50
172.1543794
51
174.7614035
0
ARC
8
left_labelLayer
10
173.9460093
20
55.7837076
40
1.3810345
50
359.6745649
51
8.922455
0
ARC
8
left_labelLayer
10
174.4394904
20
55.8641126
40
0.8810591
50
8.7342306
51
23.2772249
0
ARC
8
left_labelLayer
10
174.6737632
20
55.962456
40
0.6269961
50
23.4820553
51
39.7072274
0
ARC
8
left_labelLayer
10
174.7313052
20
56.0055164
40
0.5552298
50
40.0822728
51
80.6243494
0
ARC
8
left_labelLayer
10
174.6720731
20
55.7340012
40
0.8328885
50
79.6468224
51
90.291078
0
LINE
8
left_labelLayer
10
177.6585645
20
56.8574064
11
177.6585645
21
56.542465
0
LINE
8
left_labelLayer
10
177.6585645
20
56.542465
11
176.9774121
21
56.542465
0
LINE
8
left_labelLayer
10
176.9774121
20
56.542465
11
176.9774121
21
54.1816252
0
LINE
8
left_labelLayer
10
176.9774121
20
54.1816252
11
176.5721387
21
54.1816252
0
LINE
8
left_labelLayer
10
176.5721387
20
54.1816252
11
176.5721387
21
56.542465
0
LINE
8
left_labelLayer
10
176.5721387
20
56.542465
11
176.093623
21
56.542465
0
LINE
8
left_labelLayer
10
176.093623
20
56.542465
11
176.093623
21
56.7255705
0
LINE
8
left_labelLayer
10
176.093623
20
56.7255705
11
176.5721387
21
56.8720548
0
LINE
8
left_labelLayer
10
176.5721387
20
56.8720548
11
176.5721387
21
57.0209806
0
LINE
8
left_labelLayer
10
177.932002
20
57.9218595
11
177.8270215
21
57.5971525
0
LINE
8
left_labelLayer
10
176.9774121
20
57.0307463
11
176.9774121
21
56.8574064
0
LINE
8
left_labelLayer
10
176.9774121
20
56.8574064
11
177.6585645
21
56.8574064
0
ARC
8
left_labelLayer
10
178.2145778
20
57.0398621
40
1.6425477
50
167.5776283
51
180.6586437
0
ARC
8
left_labelLayer
10
177.4421917
20
57.2199373
40
0.8495627
50
141.7433413
51
168.2322422
0
ARC
8
left_labelLayer
10
177.3164355
20
57.2855725
40
0.7106607
50
98.2551437
51
139.6203136
0
ARC
8
left_labelLayer
10
177.4268546
20
56.7754783
40
1.231851
50
89.669739
51
99.9314354
0
ARC
8
left_labelLayer
10
177.4271614
20
56.7022453
40
1.3050811
50
81.5641331
51
89.7017438
0
ARC
8
left_labelLayer
10
177.3354103
20
56.0621415
40
1.9517221
50
75.9740582
51
81.6564947
0
ARC
8
left_labelLayer
10
177.1779934
20
55.4092077
40
2.6233468
50
73.2962995
51
76.0946657
0
ARC
8
left_labelLayer
10
177.2175923
20
55.7258105
40
1.9680764
50
71.9614234
51
76.5917286
0
ARC
8
left_labelLayer
10
177.3702974
20
56.3735894
40
1.302545
50
76.5182849
51
83.0217313
0
ARC
8
left_labelLayer
10
177.4234791
20
56.8012872
40
0.8715546
50
83.0760007
51
89.7928058
0
ARC
8
left_labelLayer
10
177.4217262
20
57.1263039
40
0.5465542
50
89.485836
51
103.4196916
0
ARC
8
left_labelLayer
10
177.372451
20
57.3156159
40
0.3509978
50
102.7677295
51
144.3380635
0
ARC
8
left_labelLayer
10
177.4717251
20
57.2517423
40
0.4689317
50
145.0689248
51
162.1800984
0
ARC
8
left_labelLayer
10
177.812087
20
57.1372286
40
0.8280226
50
161.8437984
51
171.7847242
0
ARC
8
left_labelLayer
10
178.3672033
20
57.0538501
40
1.3893604
50
171.6527305
51
178.4384165
0
ARC
8
left_labelLayer
10
178.8908965
20
57.0315139
40
1.9134847
50
178.197175
51
180.0229845
0
LINE
8
left_labelLayer
10
179.3773145
20
54.5160978
11
179.3773145
21
54.2060392
0
LINE
8
left_labelLayer
10
178.1761426
20
54.9506681
11
178.1761426
21
56.542465
0
LINE
8
left_labelLayer
10
178.1761426
20
56.542465
11
177.7928418
21
56.542465
0
LINE
8
left_labelLayer
10
177.7928418
20
56.542465
11
177.7928418
21
56.7377775
0
LINE
8
left_labelLayer
10
177.7928418
20
56.7377775
11
178.1761426
21
56.9062345
0
LINE
8
left_labelLayer
10
178.1761426
20
56.9062345
11
178.347041
21
57.4775236
0
LINE
8
left_labelLayer
10
178.347041
20
57.4775236
11
178.581416
21
57.4775236
0
LINE
8
left_labelLayer
10
178.581416
20
57.4775236
11
178.581416
21
56.8574064
0
LINE
8
left_labelLayer
10
178.581416
20
56.8574064
11
179.3577832
21
56.8574064
0
LINE
8
left_labelLayer
10
179.3577832
20
56.8574064
11
179.3577832
21
56.542465
0
LINE
8
left_labelLayer
10
179.3577832
20
56.542465
11
178.581416
21
56.542465
0
LINE
8
left_labelLayer
10
178.581416
20
56.542465
11
178.581416
21
54.967758
0
ARC
8
left_labelLayer
10
179.0138841
20
55.7982309
40
1.3309642
50
269.8802997
51
278.3028363
0
ARC
8
left_labelLayer
10
179.0266469
20
55.6940095
40
1.2259943
50
278.4159829
51
279.0089104
0
ARC
8
left_labelLayer
10
178.8772146
20
56.6486981
40
2.1923063
50
278.9591523
51
280.5106391
0
ARC
8
left_labelLayer
10
179.0194292
20
55.8856183
40
1.4160879
50
280.4851954
51
282.6264461
0
ARC
8
left_labelLayer
10
179.1443774
20
55.3304754
40
0.847058
50
282.587502
51
285.5796152
0
ARC
8
left_labelLayer
10
179.2065785
20
55.1016118
40
0.6098994
50
285.7253995
51
286.2566896
0
ARC
8
left_labelLayer
10
179.2069284
20
54.5664134
40
0.3986239
50
287.9888329
51
295.3049282
0
ARC
8
left_labelLayer
10
179.1107887
20
54.8572734
40
0.7049584
50
283.3068847
51
288.1199544
0
ARC
8
left_labelLayer
10
179.009192
20
55.2810818
40
1.140773
50
280.0070995
51
283.3733034
0
ARC
8
left_labelLayer
10
178.9414041
20
55.6488529
40
1.5147311
50
279.1862642
51
280.1148614
0
ARC
8
left_labelLayer
10
178.8995524
20
55.886949
40
1.756458
50
275.5259205
51
279.2940497
0
ARC
8
left_labelLayer
10
178.9465458
20
55.3960817
40
1.2633467
50
270.8932729
51
275.5483032
0
ARC
8
left_labelLayer
10
178.9524678
20
55.170615
40
1.0378179
50
270.0023145
51
270.7604253
0
ARC
8
left_labelLayer
10
178.9361552
20
55.1911814
40
1.0585107
50
253.7847598
51
270.8852869
0
ARC
8
left_labelLayer
10
178.8107499
20
54.7635039
40
0.6128283
50
190.3817649
51
253.8772393
0
ARC
8
left_labelLayer
10
179.4499465
20
54.9363308
40
1.2738846
50
179.3551319
51
192.847745
0
ARC
8
left_labelLayer
10
179.3974709
20
54.9626529
40
0.8160708
50
179.6415763
51
189.7507023
0
ARC
8
left_labelLayer
10
179.1093964
20
54.9112702
40
0.5234589
50
189.5480204
51
205.7872936
0
ARC
8
left_labelLayer
10
178.9909991
20
54.8566742
40
0.3931082
50
206.1294381
51
221.4083293
0
ARC
8
left_labelLayer
10
178.9777227
20
54.8466013
40
0.3764902
50
221.5949792
51
262.3504868
0
ARC
8
left_labelLayer
10
179.0092959
20
55.0089664
40
0.5416998
50
261.3266402
51
270.1911896
0
LINE
8
top_outsideCutPath
10
351.76
20
0
11
351.76
21
74
0
LINE
8
top_outsideCutPath
10
188.38
20
37
11
351.76
21
37
0
LINE
8
top_labelLayer
10
266.8686022
20
17.4449219
11
266.8686022
21
16.9860352
0
LINE
8
top_labelLayer
10
265.0908678
20
18.0880859
11
265.0908678
21
20.4439453
0
LINE
8
top_labelLayer
10
265.0908678
20
20.4439453
11
264.5235827
21
20.4439453
0
LINE
8
top_labelLayer
10
264.5235827
20
20.4439453
11
264.5235827
21
20.7330078
0
LINE
8
top_labelLayer
10
264.5235827
20
20.7330078
11
265.0908678
21
20.9823242
0
LINE
8
top_labelLayer
10
265.0908678
20
20.9823242
11
265.3437975
21
21.827832
0
LINE
8
top_labelLayer
10
265.3437975
20
21.827832
11
265.6906725
21
21.827832
0
LINE
8
top_labelLayer
10
265.6906725
20
21.827832
11
265.6906725
21
20.9100586
0
LINE
8
top_labelLayer
10
265.6906725
20
20.9100586
11
266.839696
21
20.9100586
0
LINE
8
top_labelLayer
10
266.839696
20
20.9100586
11
266.839696
21
20.4439453
0
LINE
8
top_labelLayer
10
266.839696
20
20.4439453
11
265.6906725
21
20.4439453
0
LINE
8
top_labelLayer
10
265.6906725
20
20.4439453
11
265.6906725
21
18.1133789
0
ARC
8
top_labelLayer
10
266.3307234
20
19.3424822
40
1.9698303
50
269.8803554
51
278.3028772
0
ARC
8
top_labelLayer
10
266.3502126
20
19.1844948
40
1.810688
50
278.4145587
51
279.0087252
0
ARC
8
top_labelLayer
10
266.1284524
20
20.6012449
40
3.2446872
50
278.9589825
51
280.510434
0
ARC
8
top_labelLayer
10
266.3392044
20
19.4704812
40
2.0944518
50
280.4844949
51
282.6271344
0
ARC
8
top_labelLayer
10
266.523809
20
18.6503876
40
1.2538383
50
282.5877141
51
285.5793678
0
ARC
8
top_labelLayer
10
266.6160955
20
18.3108645
40
0.9020067
50
285.7248856
51
286.2565552
0
ARC
8
top_labelLayer
10
266.6164287
20
17.5193969
40
0.5899714
50
287.9887918
51
295.3047865
0
ARC
8
top_labelLayer
10
266.4741135
20
17.9499708
40
1.0434516
50
283.3071439
51
288.1196913
0
ARC
8
top_labelLayer
10
266.3238285
20
18.576858
40
1.6880993
50
280.0069275
51
283.3736195
0
ARC
8
top_labelLayer
10
266.2227414
20
19.1256616
40
2.2461233
50
279.1868758
51
280.1136864
0
ARC
8
top_labelLayer
10
266.1614898
20
19.4739579
40
2.5997356
50
275.5260841
51
279.2939555
0
ARC
8
top_labelLayer
10
266.2310646
20
18.7472711
40
1.8697262
50
270.8932865
51
275.5483838
0
ARC
8
top_labelLayer
10
266.2398219
20
18.4132684
40
1.5356316
50
270.002589
51
270.7608671
0
ARC
8
top_labelLayer
10
266.2156867
20
18.4440485
40
1.5665988
50
253.7847825
51
270.8852773
0
ARC
8
top_labelLayer
10
266.0300868
20
17.811083
40
0.906986
50
190.3817746
51
253.877236
0
ARC
8
top_labelLayer
10
266.976096
20
18.0668663
40
1.8853476
50
179.3551196
51
192.8477442
0
ARC
8
top_labelLayer
10
266.8984558
20
18.105825
40
1.2078069
50
179.6416559
51
189.7505968
0
ARC
8
top_labelLayer
10
266.4720852
20
18.0297778
40
0.7747211
50
189.5480576
51
205.78729
0
ARC
8
top_labelLayer
10
266.2968514
20
17.9489726
40
0.5817955
50
206.1294146
51
221.4084293
0
ARC
8
top_labelLayer
10
266.2772056
20
17.9340656
40
0.557204
50
221.5949282
51
262.3505484
0
ARC
8
top_labelLayer
10
266.3239343
20
18.1743679
40
0.8017161
50
261.3266765
51
270.1912217
0
ARC
8
top_labelLayer
10
267.9798983
20
18.9127079
40
3.0982469
50
349.1762084
51
0.3862439
0
ARC
8
top_labelLayer
10
269.0230136
20
18.7047615
40
2.0346565
50
330.2506976
51
349.4116589
0
ARC
8
top_labelLayer
10
269.34402
20
18.5379154
40
1.6732293
50
318.1440179
51
329.7566165
0
ARC
8
top_labelLayer
10
269.4019644
20
18.4914798
40
1.5990914
50
278.8959217
51
317.9979141
0
ARC
8
top_labelLayer
10
269.2526801
20
19.2067075
40
2.3290929
50
269.7502566
51
279.8033482
0
ARC
8
top_labelLayer
10
269.2284683
20
18.8037313
40
1.9261459
50
253.5437181
51
270.4182285
0
ARC
8
top_labelLayer
10
269.1643481
20
18.5556989
40
1.6701327
50
238.8115219
51
253.2428526
0
ARC
8
top_labelLayer
10
269.143658
20
18.5140918
40
1.6238292
50
207.7947194
51
238.6757945
0
ARC
8
top_labelLayer
10
269.4403982
20
18.6958502
40
1.971215
50
205.6558846
51
208.4462915
0
ARC
8
top_labelLayer
10
269.6692856
20
18.7912379
40
2.2188747
50
188.9102186
51
205.3171814
0
ARC
8
top_labelLayer
10
270.4400755
20
18.9217839
40
3.000598
50
179.7744935
51
189.0932543
0
ARC
8
top_labelLayer
10
270.5537569
20
18.9546876
40
3.1143277
50
169.2442985
51
180.3880775
0
ARC
8
top_labelLayer
10
269.4961598
20
19.1637356
40
2.0363135
50
150.7111767
51
169.469528
0
ARC
8
top_labelLayer
10
269.1585405
20
19.3371143
40
1.6570934
50
138.1759787
51
150.2287399
0
ARC
8
top_labelLayer
10
269.1023759
20
19.3802135
40
1.5865082
50
99.1759392
51
137.9832808
0
ARC
8
top_labelLayer
10
269.2569502
20
18.6527774
40
2.3295723
50
89.7326331
51
100.0760174
0
ARC
8
top_labelLayer
10
269.2878443
20
18.966928
40
2.0154957
50
73.5222732
51
90.5692259
0
ARC
8
top_labelLayer
10
269.4060418
20
19.3963692
40
1.5701886
50
41.1445615
51
73.213398
0
ARC
8
top_labelLayer
10
269.1804119
20
19.2024434
40
1.8676967
50
13.5014473
51
41.070338
0
ARC
8
top_labelLayer
10
268.3086893
20
18.9743268
40
2.7686472
50
1.1277496
51
13.8799805
0
ARC
8
top_labelLayer
10
267.5580671
20
18.9340987
40
3.5200077
50
359.9917806
51
1.5419551
0
ARC
8
top_labelLayer
10
271.0983665
20
18.9180075
40
3.0374215
50
179.7059901
51
187.9160453
0
ARC
8
top_labelLayer
10
269.9843122
20
18.7579757
40
1.9119499
50
187.7638981
51
200.0977163
0
ARC
8
top_labelLayer
10
269.37061
20
18.5331134
40
1.2583496
50
200.0845936
51
216.9131594
0
ARC
8
top_labelLayer
10
269.1465034
20
18.3730902
40
0.9830779
50
217.3009286
51
261.7099371
0
ARC
8
top_labelLayer
10
269.2505405
20
18.8695422
40
1.4896732
50
260.5033219
51
270.2477194
0
ARC
8
top_labelLayer
10
269.2703985
20
18.7730103
40
1.3931921
50
269.4481944
51
284.7256007
0
ARC
8
top_labelLayer
10
269.3806902
20
18.3639773
40
0.969563
50
284.5662247
51
322.6333866
0
ARC
8
top_labelLayer
10
269.122823
20
18.5502746
40
1.2876016
50
323.0089403
51
342.6390382
0
ARC
8
top_labelLayer
10
268.3852823
20
18.7913243
40
2.063494
50
342.3615617
51
353.7537993
0
ARC
8
top_labelLayer
10
267.2971449
20
18.9224868
40
3.1594652
50
353.5363007
51
0.2014202
0
ARC
8
top_labelLayer
10
267.4638574
20
18.9488674
40
2.992772
50
359.7075882
51
7.8972923
0
ARC
8
top_labelLayer
10
268.5598965
20
19.1059955
40
1.8855457
50
7.7440025
51
20.0690424
0
ARC
8
top_labelLayer
10
269.1706508
20
19.3301206
40
1.234968
50
20.0256884
51
37.4350608
0
ARC
8
top_labelLayer
10
269.3732925
20
19.4739122
40
0.9866974
50
37.9577708
51
80.4006088
0
ARC
8
top_labelLayer
10
269.2581379
20
18.9601037
40
1.512771
50
79.3453446
51
90.3175182
0
ARC
8
top_labelLayer
10
269.2368135
20
19.0454462
40
1.427464
50
89.480564
51
103.880488
0
ARC
8
top_labelLayer
10
269.1168702
20
19.5021912
40
0.9553072
50
103.4685206
51
142.3118974
0
ARC
8
top_labelLayer
10
269.3500514
20
19.3382015
40
1.2401584
50
142.9025748
51
162.3749534
0
ARC
8
top_labelLayer
10
270.0848091
20
19.0933463
40
2.0145936
50
162.0653343
51
173.1674748
0
ARC
8
top_labelLayer
10
271.2304475
20
18.9472249
40
3.1694918
50
173.008579
51
180.2464141
0
LINE
8
top_labelLayer
10
272.7293444
20
17.459375
11
272.685985
21
17.459375
0
LINE
8
top_labelLayer
10
272.7293444
20
16.8017578
11
272.7293444
21
15.172168
0
LINE
8
top_labelLayer
10
272.7293444
20
15.172168
11
272.1295397
21
15.172168
0
LINE
8
top_labelLayer
10
272.1295397
20
15.172168
11
272.1295397
21
20.9100586
0
LINE
8
top_labelLayer
10
272.1295397
20
20.9100586
11
272.6173327
21
20.9100586
0
LINE
8
top_labelLayer
10
272.6173327
20
20.9100586
11
272.7004381
21
20.3680664
0
LINE
8
top_labelLayer
10
272.7004381
20
20.3680664
11
272.7293444
21
20.3680664
0
LINE
8
top_labelLayer
10
272.7293444
20
19.0672852
11
272.7293444
21
18.9335938
0
ARC
8
top_labelLayer
10
273.962199
20
18.6969516
40
1.819343
50
255.7755585
51
270.3185216
0
ARC
8
top_labelLayer
10
273.9102832
20
18.4662875
40
1.5830069
50
245.9802037
51
255.545548
0
ARC
8
top_labelLayer
10
273.8097184
20
18.23242
40
1.3284602
50
215.5850316
51
245.836153
0
ARC
8
top_labelLayer
10
267.0543938
20
16.7477333
40
5.6763768
50
2.9503092
51
7.2020655
0
ARC
8
top_labelLayer
10
267.9726414
20
16.7991118
40
4.7567037
50
0.0318723
51
2.9015466
0
ARC
8
top_labelLayer
10
274.0505982
20
19.4401484
40
1.6145413
50
132.3565418
51
144.9195888
0
ARC
8
top_labelLayer
10
273.8032607
20
19.7099844
40
1.2485
50
115.4006032
51
132.3118329
0
ARC
8
top_labelLayer
10
273.8997388
20
19.4751195
40
1.5021061
50
97.7066505
51
114.8821291
0
ARC
8
top_labelLayer
10
273.967116
20
19.0381605
40
1.9441708
50
89.8468367
51
97.9474824
0
ARC
8
top_labelLayer
10
273.9908762
20
19.143857
40
1.8385609
50
74.1923814
51
90.5784978
0
ARC
8
top_labelLayer
10
274.1180943
20
19.6063257
40
1.3589314
50
38.0523375
51
74.0417225
0
ARC
8
top_labelLayer
10
273.7672056
20
19.3373845
40
1.8010141
50
16.3355956
51
37.9090529
0
ARC
8
top_labelLayer
10
272.8454146
20
19.0534668
40
2.76548
50
4.576644
51
16.60888
0
ARC
8
top_labelLayer
10
271.7105724
20
18.9403875
40
3.9057896
50
359.9003396
51
4.9018202
0
ARC
8
top_labelLayer
10
272.0996228
20
18.9128455
40
3.5167945
50
350.6562814
51
0.3380327
0
ARC
8
top_labelLayer
10
273.3256275
20
18.7043166
40
2.2732102
50
335.8306192
51
350.8254576
0
ARC
8
top_labelLayer
10
273.8649316
20
18.4715467
40
1.6858988
50
321.3161729
51
335.5436065
0
ARC
8
top_labelLayer
10
274.0711137
20
18.3035404
40
1.4199458
50
274.0640049
51
321.4081084
0
ARC
8
top_labelLayer
10
273.9750602
20
18.9119703
40
2.0343356
50
269.9226318
51
275.5482091
0
ARC
8
top_labelLayer
10
273.8732412
20
18.7446176
40
1.7282781
50
89.5904647
51
100.3501643
0
ARC
8
top_labelLayer
10
273.7500033
20
19.3920423
40
1.0692582
50
100.0868498
51
118.1917455
0
ARC
8
top_labelLayer
10
273.6237546
20
19.6382708
40
0.7926126
50
118.5569576
51
141.0243386
0
ARC
8
top_labelLayer
10
273.8161281
20
19.5025727
40
1.0276361
50
141.8889938
51
160.5973131
0
ARC
8
top_labelLayer
10
274.4922164
20
19.2544956
40
1.7477651
50
160.2895549
51
171.245298
0
ARC
8
top_labelLayer
10
275.6038644
20
19.0752644
40
2.873752
50
171.0868905
51
178.3247154
0
ARC
8
top_labelLayer
10
276.5468276
20
19.0304668
40
3.8176606
50
178.0664115
51
179.4474181
0
ARC
8
top_labelLayer
10
276.6951895
20
18.9181079
40
3.9658753
50
179.776272
51
185.7075065
0
ARC
8
top_labelLayer
10
275.1315819
20
18.7570017
40
2.394002
50
185.5924716
51
194.2050384
0
ARC
8
top_labelLayer
10
274.1299428
20
18.4970421
40
1.3592112
50
193.9430013
51
208.0219035
0
ARC
8
top_labelLayer
10
273.7247111
20
18.2908904
40
0.9046727
50
208.5537453
51
217.5604003
0
ARC
8
top_labelLayer
10
273.6916742
20
18.2771452
40
0.8701539
50
218.1690354
51
253.8047099
0
ARC
8
top_labelLayer
10
273.8530712
20
18.7747472
40
1.3931191
50
253.1382236
51
266.8482984
0
ARC
8
top_labelLayer
10
273.8983322
20
19.3084992
40
1.9286173
50
266.3775098
51
270.0509605
0
ARC
8
top_labelLayer
10
273.9137048
20
18.3904411
40
1.0106506
50
269.2257173
51
292.0430044
0
ARC
8
top_labelLayer
10
273.9273414
20
18.3091733
40
0.9303768
50
293.142967
51
324.1353836
0
ARC
8
top_labelLayer
10
273.7243962
20
18.4809528
40
1.1956576
50
323.1620436
51
325.0151189
0
ARC
8
top_labelLayer
10
273.5077958
20
18.6152262
40
1.4501755
50
325.5753484
51
344.1504786
0
ARC
8
top_labelLayer
10
272.7573645
20
18.8370631
40
2.2326794
50
343.9335935
51
355.1137449
0
ARC
8
top_labelLayer
10
271.7993696
20
18.9342712
40
3.195509
50
354.8402231
51
0.1174266
0
ARC
8
top_labelLayer
10
271.9681159
20
18.9560974
40
3.0267944
50
359.7108113
51
7.8610189
0
ARC
8
top_labelLayer
10
273.0686599
20
19.1129764
40
1.9151421
50
7.7149407
51
19.885959
0
ARC
8
top_labelLayer
10
273.6739228
20
19.3315992
40
1.2716057
50
19.8991628
51
35.897981
0
ARC
8
top_labelLayer
10
273.9439046
20
19.5360616
40
0.933047
50
35.4481584
51
85.2266636
0
ARC
8
top_labelLayer
10
273.887503
20
19.1823401
40
1.2905129
50
84.0379882
51
90.0847354
0
LINE
8
back_outsideCutPath
10
0
20
224.28
11
188.38
21
224.28
0
LINE
8
back_labelLayer
10
60.2585566
20
161.3437389
11
60.1271426
21
161.3437389
0
LINE
8
back_labelLayer
10
60.1271426
20
161.3437389
11
59.7438516
21
159.7996237
0
LINE
8
back_labelLayer
10
59.7438516
20
159.7996237
11
58.4406621
21
159.7996237
0
LINE
8
back_labelLayer
10
58.4406621
20
159.7996237
11
58.4406621
21
176.8396472
0
LINE
8
back_labelLayer
10
58.4406621
20
176.8396472
11
60.2585566
21
176.8396472
0
LINE
8
back_labelLayer
10
60.2585566
20
176.8396472
11
60.2585566
21
172.7001042
0
LINE
8
back_labelLayer
10
60.1709473
20
170.203237
11
60.2585566
21
170.203237
0
ARC
8
back_labelLayer
10
64.0802949
20
166.4433818
40
5.556115
50
74.2393342
51
90.5623858
0
ARC
8
back_labelLayer
10
64.4476832
20
167.7911626
40
4.1592333
50
38.5631358
51
74.0670373
0
ARC
8
back_labelLayer
10
63.5022268
20
167.0560157
40
5.3567992
50
16.4709258
51
38.4075303
0
ARC
8
back_labelLayer
10
60.7785119
20
166.2019369
40
8.2110321
50
5.133841
51
16.797347
0
ARC
8
back_labelLayer
10
57.3400206
20
165.8366771
40
11.6685488
50
359.8779302
51
5.4093548
0
ARC
8
back_labelLayer
10
58.3499795
20
165.7489342
40
10.6587489
50
350.6562849
51
0.3380269
0
ARC
8
back_labelLayer
10
62.0658031
20
165.1169135
40
6.8896437
50
335.8305929
51
350.8254888
0
ARC
8
back_labelLayer
10
63.7003166
20
164.4114333
40
5.1096286
50
321.3161586
51
335.5436254
0
ARC
8
back_labelLayer
10
64.3252056
20
163.9022448
40
4.3035871
50
274.0640031
51
321.4081057
0
ARC
8
back_labelLayer
10
64.0340896
20
165.7462752
40
6.1656807
50
269.922593
51
275.5481754
0
ARC
8
back_labelLayer
10
63.9951028
20
165.0945829
40
5.5140678
50
255.7755458
51
270.3185534
0
ARC
8
back_labelLayer
10
63.8377463
20
164.3954655
40
4.7977576
50
245.9801699
51
255.5455877
0
ARC
8
back_labelLayer
10
63.5329633
20
163.6866894
40
4.0263081
50
215.5850217
51
245.8361711
0
ARC
8
back_labelLayer
10
22.3568144
20
172.6680679
40
37.9017558
50
358.1123159
51
0.048429
0
ARC
8
back_labelLayer
10
32.9054398
20
172.3139191
40
27.34719
50
355.7238688
51
358.1258949
0
ARC
8
back_labelLayer
10
37.5114108
20
171.9978699
40
22.7304926
50
355.4716327
51
355.6526173
0
ARC
8
back_labelLayer
10
63.6488509
20
167.8390934
40
4.1331913
50
95.1835163
51
145.1108973
0
ARC
8
back_labelLayer
10
64.0121408
20
165.7904818
40
6.2087622
50
89.8743208
51
96.8145474
0
ARC
8
back_labelLayer
10
63.724874
20
165.368722
40
5.108436
50
89.5731448
51
100.7324363
0
ARC
8
back_labelLayer
10
63.3467063
20
167.2793513
40
3.1608443
50
100.446943
51
119.6700761
0
ARC
8
back_labelLayer
10
62.9960304
20
167.9349803
40
2.4176699
50
120.1402829
51
142.424907
0
ARC
8
back_labelLayer
10
63.576192
20
167.5511837
40
3.1119145
50
143.3382265
51
161.2559972
0
ARC
8
back_labelLayer
10
66.0023395
20
166.6898214
40
5.6862931
50
160.8926516
51
171.2334149
0
ARC
8
back_labelLayer
10
70.0524817
20
166.0364408
40
9.788742
50
171.0667883
51
177.8456845
0
ARC
8
back_labelLayer
10
74.2645348
20
165.8222147
40
14.005982
50
177.6176655
51
180.0425348
0
ARC
8
back_labelLayer
10
72.2782055
20
165.7648803
40
12.0197405
50
179.776261
51
185.7075337
0
ARC
8
back_labelLayer
10
67.5392784
20
165.2766014
40
7.2557616
50
185.5924862
51
194.2050592
0
ARC
8
back_labelLayer
10
64.50353
20
164.4887201
40
4.1195377
50
193.9430349
51
208.0218487
0
ARC
8
back_labelLayer
10
63.2752605
20
163.8638642
40
2.7418158
50
208.5536429
51
217.5605476
0
ARC
8
back_labelLayer
10
63.1751963
20
163.8222466
40
2.6372726
50
218.1690526
51
253.804716
0
ARC
8
back_labelLayer
10
63.6643587
20
165.3303828
40
4.2222799
50
253.1382384
51
266.848315
0
ARC
8
back_labelLayer
10
63.8015282
20
166.9480512
40
5.8452403
50
266.3775785
51
270.0510504
0
ARC
8
back_labelLayer
10
63.8455153
20
164.7265568
40
3.6239511
50
269.3868801
51
285.8630726
0
ARC
8
back_labelLayer
10
64.1147509
20
163.7535022
40
2.6143694
50
286.0162985
51
326.8497261
0
ARC
8
back_labelLayer
10
62.8152807
20
164.6143547
40
4.1730949
50
326.7104872
51
343.6661912
0
ARC
8
back_labelLayer
10
60.3827148
20
165.3576673
40
6.7165888
50
343.4171493
51
353.636905
0
ARC
8
back_labelLayer
10
56.7086055
20
165.7936242
40
10.416413
50
353.493484
51
0.2205456
0
ARC
8
back_labelLayer
10
56.3847647
20
165.877195
40
10.7402647
50
359.7680716
51
6.3095237
0
ARC
8
back_labelLayer
10
60.430372
20
166.3414512
40
6.6681625
50
6.1648802
51
16.0396237
0
ARC
8
back_labelLayer
10
63.0365308
20
167.1094829
40
3.9512916
50
15.7779491
51
32.0151204
0
ARC
8
back_labelLayer
10
63.8489496
20
167.574698
40
3.0160223
50
32.7035648
51
35.5240905
0
ARC
8
back_labelLayer
10
64.146453
20
167.7861415
40
2.6510347
50
35.5408416
51
79.801124
0
ARC
8
back_labelLayer
10
63.7904461
20
166.2726848
40
4.2044215
50
78.6781358
51
90.3749565
0
LINE
8
back_labelLayer
10
80.9124668
20
159.7996237
11
79.5654727
21
159.7996237
0
LINE
8
back_labelLayer
10
79.5654727
20
159.7996237
11
79.204084
21
161.5080065
0
LINE
8
back_labelLayer
10
79.204084
20
161.5080065
11
79.1164746
21
161.5080065
0
LINE
8
back_labelLayer
10
77.101459
20
166.9288366
11
79.138377
21
166.9945436
0
LINE
8
back_labelLayer
10
79.138377
20
166.9945436
11
79.138377
21
167.7392233
0
LINE
8
back_labelLayer
10
73.1918906
20
169.5790202
11
72.6333809
21
170.969819
0
LINE
8
back_labelLayer
10
80.9124668
20
167.9911003
11
80.9124668
21
159.7996237
0
LINE
8
back_labelLayer
10
79.0945723
20
164.6181393
11
79.0945723
21
165.7023054
0
LINE
8
back_labelLayer
10
79.0945723
20
165.7023054
11
77.2766777
21
165.6256472
0
ARC
8
back_labelLayer
10
73.2017671
20
166.1779561
40
7.5360596
50
314.7445007
51
321.7071893
0
ARC
8
back_labelLayer
10
75.0532566
20
164.2966988
40
4.8965502
50
304.8485469
51
314.8530733
0
ARC
8
back_labelLayer
10
75.942672
20
163.0307073
40
3.3493812
50
294.3932717
51
304.7371287
0
ARC
8
back_labelLayer
10
75.638809
20
163.8180416
40
4.1922063
50
281.297964
51
293.7313632
0
ARC
8
back_labelLayer
10
75.2371204
20
165.7648253
40
6.1799725
50
272.9335066
51
281.413925
0
ARC
8
back_labelLayer
10
75.1039715
20
167.761667
40
8.1810695
50
269.9539383
51
273.1490879
0
ARC
8
back_labelLayer
10
75.0579861
20
165.1593442
40
5.5788831
50
258.6719816
51
270.4047323
0
ARC
8
back_labelLayer
10
74.6704673
20
163.3056092
40
3.6851766
50
238.3272975
51
258.9183864
0
ARC
8
back_labelLayer
10
74.4034342
20
162.8184347
40
3.1304813
50
227.7689778
51
237.8049861
0
ARC
8
back_labelLayer
10
74.3198941
20
162.701814
40
2.9880271
50
192.0827626
51
227.4520729
0
ARC
8
back_labelLayer
10
75.8604014
20
163.0815629
40
4.5741583
50
179.5457296
51
192.6949219
0
ARC
8
back_labelLayer
10
74.4292821
20
163.247182
40
3.1455562
50
115.4904636
51
182.3568124
0
ARC
8
back_labelLayer
10
76.0046112
20
160.3577048
40
6.4341984
50
101.3568202
51
117.079866
0
ARC
8
back_labelLayer
10
77.2697461
20
154.4456139
40
12.4798904
50
92.469628
51
101.7064917
0
ARC
8
back_labelLayer
10
77.6333683
20
149.1791861
40
17.7576188
50
91.7164867
51
92.9095883
0
ARC
8
back_labelLayer
10
73.9170258
20
167.7671715
40
5.221426
50
359.6933171
51
8.0035666
0
ARC
8
back_labelLayer
10
75.8921885
20
168.0549102
40
3.2254543
50
7.8272693
51
20.6041823
0
ARC
8
back_labelLayer
10
77.0098982
20
168.4824907
40
2.0287823
50
20.4094104
51
41.4479493
0
ARC
8
back_labelLayer
10
77.1750413
20
168.5732646
40
1.8453728
50
42.7295601
51
71.038035
0
ARC
8
back_labelLayer
10
76.7862405
20
167.5161067
40
2.9715992
50
70.5716393
51
83.9928674
0
ARC
8
back_labelLayer
10
76.6004951
20
166.0073085
40
4.4916312
50
83.6506654
51
90.1752845
0
ARC
8
back_labelLayer
10
76.6330805
20
164.5804283
40
5.9186717
50
90.4484702
51
103.7665513
0
ARC
8
back_labelLayer
10
77.3290808
20
161.6453592
40
8.9350791
50
103.6226456
51
112.4320018
0
ARC
8
back_labelLayer
10
78.522145
20
158.6329707
40
12.1748763
50
112.212234
51
115.9640862
0
ARC
8
back_labelLayer
10
76.6115678
20
163.5923178
40
8.3817358
50
106.3568553
51
118.3349798
0
ARC
8
back_labelLayer
10
76.9685133
20
162.4897518
40
9.5402534
50
104.5161957
51
106.5490078
0
ARC
8
back_labelLayer
10
76.7067634
20
163.5803532
40
8.4188825
50
90.0714442
51
104.6520994
0
ARC
8
back_labelLayer
10
76.7398022
20
164.3215511
40
7.6778016
50
81.5679828
51
90.3248943
0
ARC
8
back_labelLayer
10
77.1837237
20
167.2135756
40
4.7519674
50
68.2273381
51
81.7494285
0
ARC
8
back_labelLayer
10
77.8020266
20
168.7519662
40
3.0939792
50
47.8683336
51
68.2934076
0
ARC
8
back_labelLayer
10
77.9023822
20
168.9523421
40
2.8786824
50
19.2330909
51
46.6741337
0
ARC
8
back_labelLayer
10
76.2306727
20
168.3304625
40
4.6620849
50
6.3379128
51
19.6815347
0
ARC
8
back_labelLayer
10
73.7594562
20
168.0157346
40
7.1530528
50
359.8026797
51
6.6583287
0
ARC
8
back_labelLayer
10
75.4955434
20
166.085956
40
5.0051802
50
269.5791918
51
282.0413769
0
ARC
8
back_labelLayer
10
75.8606354
20
164.4665677
40
3.3453134
50
281.7120984
51
306.4593839
0
ARC
8
back_labelLayer
10
76.0225539
20
164.2002959
40
3.0350653
50
306.9880717
51
313.8559949
0
ARC
8
back_labelLayer
10
76.003265
20
164.1948165
40
3.0445301
50
314.1891965
51
347.4269861
0
ARC
8
back_labelLayer
10
74.4781846
20
164.5769953
40
4.6164146
50
346.9177561
51
0.2824651
0
ARC
8
back_labelLayer
10
73.3134995
20
164.618191
40
5.7810729
50
359.8172712
51
359.9994883
0
ARC
8
back_labelLayer
10
77.7090964
20
152.2846419
40
13.3480113
50
91.8564636
51
96.4478417
0
ARC
8
back_labelLayer
10
77.1071452
20
157.493498
40
8.1045162
50
96.3545521
51
102.9953267
0
ARC
8
back_labelLayer
10
76.2900284
20
160.9651837
40
4.5380262
50
102.7995564
51
113.2433162
0
ARC
8
back_labelLayer
10
75.6164182
20
162.576199
40
2.7919849
50
113.5886462
51
121.6804932
0
ARC
8
back_labelLayer
10
75.1484158
20
163.2889558
40
1.9397972
50
120.9734083
51
172.4179768
0
ARC
8
back_labelLayer
10
76.0631708
20
163.1062395
40
2.8712988
50
171.2122058
51
180.2057947
0
ARC
8
back_labelLayer
10
75.7897851
20
163.0744608
40
2.5979832
50
179.5265921
51
192.7787126
0
ARC
8
back_labelLayer
10
74.9109329
20
162.8614245
40
1.6938307
50
192.326462
51
222.0579724
0
ARC
8
back_labelLayer
10
74.8455616
20
162.8223324
40
1.6191749
50
222.5805022
51
229.2546782
0
ARC
8
back_labelLayer
10
75.0664602
20
163.1067331
40
1.9789065
50
229.7836872
51
254.2724318
0
ARC
8
back_labelLayer
10
75.3606701
20
164.0871606
40
3.0024284
50
253.9396784
51
266.4533837
0
ARC
8
back_labelLayer
10
75.4545689
20
165.1695095
40
4.0886007
50
266.0783199
51
270.0590569
0
LINE
8
back_labelLayer
10
92.6630742
20
171.3969147
11
92.1045645
21
169.8527995
0
LINE
8
back_labelLayer
10
92.4878555
20
161.8146393
11
92.4878555
21
160.2048171
0
ARC
8
back_labelLayer
10
89.3963974
20
166.3745585
40
6.7942057
50
256.4243836
51
270.4889821
0
ARC
8
back_labelLayer
10
88.8534768
20
164.2555813
40
4.6070916
50
221.7976362
51
256.8020527
0
ARC
8
back_labelLayer
10
89.3792349
20
164.6440428
40
5.258308
50
196.016669
51
221.1349203
0
ARC
8
back_labelLayer
10
92.0216409
20
165.4516977
40
8.0211242
50
183.5913769
51
196.3539551
0
ARC
8
back_labelLayer
10
94.9817525
20
165.7124793
40
10.9920128
50
179.9388661
51
183.9815206
0
ARC
8
back_labelLayer
10
94.0199756
20
165.7887858
40
10.0304374
50
169.8978437
51
180.3688848
0
ARC
8
back_labelLayer
10
90.5281398
20
166.4347243
40
6.4794795
50
153.0875069
51
170.1051436
0
ARC
8
back_labelLayer
10
89.2032701
20
167.0677844
40
5.0116767
50
138.6549967
51
152.6853593
0
ARC
8
back_labelLayer
10
88.9559995
20
167.2479799
40
4.7070875
50
101.4912864
51
138.3133943
0
ARC
8
back_labelLayer
10
89.523679
20
164.8853618
40
7.1359532
50
89.589186
51
102.1787775
0
ARC
8
back_labelLayer
10
89.5673331
20
163.8174992
40
8.2036358
50
77.7702429
51
89.9475441
0
ARC
8
back_labelLayer
10
89.4120899
20
162.9609929
40
9.0736386
50
74.6796839
51
77.9578836
0
ARC
8
back_labelLayer
10
90.2508264
20
165.9995652
40
5.9214419
50
70.0945387
51
74.738654
0
ARC
8
back_labelLayer
10
91.0486208
20
168.1859132
40
3.5940959
50
63.503358
51
70.1861501
0
ARC
8
back_labelLayer
10
91.4246209
20
168.9737629
40
2.7212922
50
62.9287912
51
63.1877411
0
ARC
8
back_labelLayer
10
89.1182248
20
162.3372193
40
8.0871608
50
68.3294437
51
74.8831174
0
ARC
8
back_labelLayer
10
88.6916136
20
160.8245314
40
9.6587743
50
74.7801602
51
77.4497537
0
ARC
8
back_labelLayer
10
89.1395274
20
162.9269835
40
7.5092546
50
77.2998798
51
81.734529
0
ARC
8
back_labelLayer
10
89.4662307
20
165.2034553
40
5.209464
50
81.6910252
51
87.5078733
0
ARC
8
back_labelLayer
10
89.5292744
20
166.3817787
40
4.0295309
50
87.6749194
51
89.9749084
0
ARC
8
back_labelLayer
10
89.4409208
20
166.379958
40
4.0323584
50
88.7194026
51
112.5667593
0
ARC
8
back_labelLayer
10
89.1543942
20
167.3272895
40
3.0492101
50
114.4265715
51
161.6632829
0
ARC
8
back_labelLayer
10
92.0007424
20
166.2131969
40
6.1036785
50
160.1418321
51
175.1368185
0
ARC
8
back_labelLayer
10
95.9183939
20
165.7732756
40
10.0450829
50
174.530987
51
180.1549486
0
ARC
8
back_labelLayer
10
94.6772086
20
165.7006461
40
8.8039783
50
179.7041223
51
188.0743761
0
ARC
8
back_labelLayer
10
91.5061315
20
165.2366818
40
5.5991872
50
187.9315222
51
200.3885487
0
ARC
8
back_labelLayer
10
89.7914929
20
164.6014943
40
3.7706788
50
200.4183282
51
216.639284
0
ARC
8
back_labelLayer
10
89.0726813
20
164.087633
40
2.8872867
50
216.9695369
51
261.3103025
0
ARC
8
back_labelLayer
10
89.389909
20
165.5665987
40
4.3981269
50
260.1359438
51
270.2692384
0
ARC
8
back_labelLayer
10
89.3752682
20
168.7783597
40
7.6099214
50
270.265838
51
286.2891467
0
ARC
8
back_labelLayer
10
88.9126476
20
170.5036361
40
9.3957852
50
286.0460562
51
292.3653938
0
ARC
8
back_labelLayer
10
90.1446834
20
164.8143938
40
5.1709431
50
282.0344152
51
296.9454576
0
ARC
8
back_labelLayer
10
89.6128827
20
167.2110104
40
7.6257956
50
272.5980422
51
282.1878431
0
ARC
8
back_labelLayer
10
89.4603821
20
169.5499052
40
9.9693067
50
269.9655093
51
272.8642793
0
LINE
8
back_labelLayer
10
97.043543
20
165.9432311
11
97.1311523
21
165.9432311
0
LINE
8
back_labelLayer
10
98.5657559
20
167.6954186
11
102.4424707
21
171.8021081
0
LINE
8
back_labelLayer
10
102.4424707
20
171.8021081
11
104.5998516
21
171.8021081
0
LINE
8
back_labelLayer
10
104.5998516
20
171.8021081
11
99.7375312
21
166.6879108
0
LINE
8
back_labelLayer
10
99.7375312
20
166.6879108
11
104.9393379
21
159.7996237
0
LINE
8
back_labelLayer
10
104.9393379
20
159.7996237
11
102.7381523
21
159.7996237
0
LINE
8
back_labelLayer
10
102.7381523
20
159.7996237
11
98.5000488
21
165.4723307
0
LINE
8
back_labelLayer
10
98.5000488
20
165.4723307
11
97.1311523
21
164.2896042
0
LINE
8
back_labelLayer
10
97.1311523
20
164.2896042
11
97.1311523
21
159.7996237
0
LINE
8
back_labelLayer
10
97.1311523
20
159.7996237
11
95.3351602
21
159.7996237
0
LINE
8
back_labelLayer
10
95.3351602
20
159.7996237
11
95.3351602
21
176.8396472
0
LINE
8
back_labelLayer
10
95.3351602
20
176.8396472
11
97.1311523
21
176.8396472
0
LINE
8
back_labelLayer
10
97.1311523
20
176.8396472
11
97.1311523
21
167.8049304
0
ARC
8
back_labelLayer
10
105.9152169
20
159.7254927
40
10.7619729
50
142.3234072
51
144.7074994
0
ARC
8
back_labelLayer
10
111.645767
20
155.3053873
40
17.9991358
50
140.433114
51
142.3365806
0
ARC
8
back_labelLayer
10
119.1148586
20
149.1569933
40
27.6733214
50
139.2799154
51
140.4703154
0
ARC
8
back_labelLayer
10
127.7478001
20
141.7332774
40
39.0592433
50
138.3417415
51
139.2877555
0
ARC
8
back_labelLayer
10
85.0170789
20
167.8275931
40
12.1140946
50
358.2739414
51
359.8928127
0
ARC
8
back_labelLayer
10
75.5960821
20
168.0901113
40
21.5387345
50
357.5040817
51
358.3307864
0
ARC
8
back_labelLayer
10
61.4860425
20
168.7133163
40
35.6625286
50
356.6325056
51
357.4909931
0
ARC
8
back_labelLayer
10
38.0406392
20
170.0807056
40
59.147771
50
356.0329263
51
356.6442805
0
ARC
8
back_labelLayer
10
22.0762489
20
171.1586786
40
75.1484934
50
356.0203655
51
356.0550958
0
LINE
8
right_labelLayer
10
172.2484082
20
169.6064991
11
172.1922559
21
169.2305226
0
LINE
8
right_labelLayer
10
171.1131543
20
168.3467335
11
171.1131543
21
166.9111866
0
LINE
8
right_labelLayer
10
171.1131543
20
166.9111866
11
170.7078809
21
166.9111866
0
LINE
8
right_labelLayer
10
170.7078809
20
166.9111866
11
170.7078809
21
169.5869679
0
LINE
8
right_labelLayer
10
170.7078809
20
169.5869679
11
171.0423535
21
169.5869679
0
LINE
8
right_labelLayer
10
171.0423535
20
169.5869679
11
171.0887402
21
169.0913624
0
LINE
8
right_labelLayer
10
171.0887402
20
169.0913624
11
171.1082715
21
169.0913624
0
ARC
8
right_labelLayer
10
171.932746
20
167.7752718
40
1.8605288
50
84.99231
51
90.1281706
0
ARC
8
right_labelLayer
10
171.9774228
20
168.2758459
40
1.3579658
50
78.4892132
51
85.026549
0
ARC
8
right_labelLayer
10
171.8040051
20
167.4871109
40
1.7861195
50
77.4453267
51
81.6360495
0
ARC
8
right_labelLayer
10
171.8818219
20
168.0235101
40
1.2441066
50
81.5883502
51
87.1916744
0
ARC
8
right_labelLayer
10
171.8987183
20
168.3165494
40
0.9505947
50
87.343484
51
89.9657156
0
ARC
8
right_labelLayer
10
171.8947958
20
168.5649388
40
0.7022192
50
89.63354
51
137.088063
0
ARC
8
right_labelLayer
10
172.0670642
20
168.3712045
40
0.9606123
50
135.6207359
51
138.8378665
0
ARC
8
right_labelLayer
10
172.0418806
20
168.3957904
40
0.9254726
50
138.9575937
51
174.5422358
0
ARC
8
right_labelLayer
10
172.3432838
20
168.3486305
40
1.2301308
50
173.6908194
51
180.0883533
0
ARC
8
right_labelLayer
10
172.3006826
20
168.4195621
40
1.3686343
50
139.4139858
51
150.6032391
0
ARC
8
right_labelLayer
10
172.0552744
20
168.6298496
40
1.0454532
50
124.2320942
51
139.4161144
0
ARC
8
right_labelLayer
10
171.9240672
20
168.827908
40
0.8079007
50
89.6796707
51
124.440559
0
LINE
8
right_labelLayer
10
173.1541699
20
169.5869679
11
173.1541699
21
166.9111866
0
LINE
8
right_labelLayer
10
173.1541699
20
166.9111866
11
172.7488965
21
166.9111866
0
LINE
8
right_labelLayer
10
172.7488965
20
166.9111866
11
172.7488965
21
169.5869679
0
LINE
8
right_labelLayer
10
172.7488965
20
169.5869679
11
173.1541699
21
169.5869679
0
ARC
8
right_labelLayer
10
173.163793
20
170.314844
40
0.4490848
50
170.8450542
51
180.3544876
0
ARC
8
right_labelLayer
10
172.9956739
20
170.3429559
40
0.2786364
50
155.9677681
51
171.0517529
0
ARC
8
right_labelLayer
10
172.9142477
20
170.3790805
40
0.1895568
50
133.787841
51
155.9170848
0
ARC
8
right_labelLayer
10
172.9443122
20
170.3458442
40
0.2343584
50
92.6445562
51
133.4711337
0
ARC
8
right_labelLayer
10
172.9538057
20
170.2713722
40
0.3092481
50
89.9687011
51
93.765032
0
ARC
8
right_labelLayer
10
172.9576752
20
170.3418671
40
0.2387818
50
46.3708484
51
90.8879832
0
ARC
8
right_labelLayer
10
172.9814391
20
170.3664005
40
0.2046272
50
17.7252113
51
46.447314
0
ARC
8
right_labelLayer
10
172.8706153
20
170.3282377
40
0.3218193
50
4.9428885
51
18.190003
0
ARC
8
right_labelLayer
10
172.7296728
20
170.3129999
40
0.4635605
50
359.8845116
51
5.3182734
0
ARC
8
right_labelLayer
10
172.7739274
20
170.3092182
40
0.4193146
50
349.8344369
51
0.3890734
0
ARC
8
right_labelLayer
10
172.9265815
20
170.280741
40
0.2640333
50
332.6321078
51
350.0704827
0
ARC
8
right_labelLayer
10
172.9859958
20
170.2514024
40
0.1977861
50
313.6154814
51
332.2676591
0
ARC
8
right_labelLayer
10
172.9573633
20
170.2774735
40
0.2364282
50
269.1787624
51
314.2807904
0
ARC
8
right_labelLayer
10
172.951288
20
170.2984887
40
0.2574332
50
250.4998545
51
270.5979519
0
ARC
8
right_labelLayer
10
172.9434975
20
170.2693595
40
0.2273869
50
225.1300791
51
249.9001655
0
ARC
8
right_labelLayer
10
172.9313026
20
170.255887
40
0.209237
50
197.7935627
51
224.8939674
0
ARC
8
right_labelLayer
10
173.0454776
20
170.2950113
40
0.3299147
50
184.9928208
51
198.2038097
0
ARC
8
right_labelLayer
10
173.1931991
20
170.3110659
40
0.4784832
50
179.8803012
51
185.3685092
0
LINE
8
right_labelLayer
10
175.2781934
20
169.5869679
11
176.2034863
21
169.5869679
0
LINE
8
right_labelLayer
10
176.2034863
20
169.5869679
11
176.2034863
21
169.3306202
0
LINE
8
right_labelLayer
10
176.2034863
20
169.3306202
11
175.7078809
21
169.2720265
0
LINE
8
right_labelLayer
10
174.7947949
20
167.3359913
11
175.2684277
21
167.3359913
0
LINE
8
right_labelLayer
10
175.1390332
20
166.9722218
11
174.6531934
21
166.9722218
0
ARC
8
right_labelLayer
10
175.1914036
20
168.8632948
40
0.6586428
50
29.4585702
51
38.3575169
0
ARC
8
right_labelLayer
10
174.9223032
20
168.7096777
40
0.9685007
50
23.1844384
51
29.5422316
0
ARC
8
right_labelLayer
10
174.6656752
20
168.5958671
40
1.2492156
50
21.2503643
51
23.3489607
0
ARC
8
right_labelLayer
10
175.1019854
20
168.769384
40
0.7796903
50
6.8505322
51
20.9872312
0
ARC
8
right_labelLayer
10
174.8824065
20
168.739613
40
1.001258
50
359.8709875
51
7.0432144
0
ARC
8
right_labelLayer
10
174.9546387
20
168.7276982
40
0.9290737
50
342.5650357
51
0.5957591
0
ARC
8
right_labelLayer
10
175.1259888
20
168.6803835
40
0.7514446
50
310.6098271
51
342.092334
0
ARC
8
right_labelLayer
10
175.0299033
20
168.7921502
40
0.8988358
50
284.9316279
51
310.6222495
0
ARC
8
right_labelLayer
10
174.9096639
20
169.2134848
40
1.3369469
50
272.5335086
51
285.258004
0
ARC
8
right_labelLayer
10
174.8787529
20
169.6357256
40
1.7601836
50
269.9690702
51
272.9311607
0
ARC
8
right_labelLayer
10
174.8749107
20
169.1779939
40
1.302455
50
263.4836044
51
270.1272204
0
ARC
8
right_labelLayer
10
174.8537157
20
168.9766397
40
1.0999978
50
259.496629
51
263.3902105
0
ARC
8
right_labelLayer
10
174.9850036
20
167.2547679
40
0.7211721
50
117.3934707
51
128.4094332
0
ARC
8
right_labelLayer
10
174.7993447
20
167.4850925
40
0.4253527
50
128.0881155
51
147.1399625
0
ARC
8
right_labelLayer
10
174.6993244
20
167.5522147
40
0.3049232
50
147.5369534
51
180.2592402
0
ARC
8
right_labelLayer
10
174.6044378
20
167.5482387
40
0.2100496
50
179.2917695
51
198.3578484
0
ARC
8
right_labelLayer
10
174.5651099
20
167.5379041
40
0.1694876
50
199.2292654
51
239.5689616
0
ARC
8
right_labelLayer
10
174.5975223
20
167.5826366
40
0.2245369
50
238.2189177
51
239.847407
0
ARC
8
right_labelLayer
10
174.6237373
20
167.6364884
40
0.2843038
50
240.7305809
51
254.5022966
0
ARC
8
right_labelLayer
10
174.7013234
20
167.9038506
40
0.5626858
50
254.1636161
51
262.2122157
0
ARC
8
right_labelLayer
10
174.7627886
20
168.3331826
40
0.9963904
50
262.0556963
51
267.2081339
0
ARC
8
right_labelLayer
10
174.7924758
20
168.877687
40
1.5416976
50
267.0917998
51
270.0861884
0
ARC
8
right_labelLayer
10
175.2772857
20
165.677043
40
1.6589719
50
81.5744676
51
90.3059274
0
ARC
8
right_labelLayer
10
175.3682855
20
166.27053
40
1.0585612
50
68.3671508
51
81.7399697
0
ARC
8
right_labelLayer
10
175.4871352
20
166.574267
40
0.7324044
50
52.1879863
51
68.2500862
0
ARC
8
right_labelLayer
10
175.5702988
20
166.6863253
40
0.5928976
50
8.6201199
51
51.8982264
0
ARC
8
right_labelLayer
10
175.2788319
20
166.6246537
40
0.8904836
50
359.7429886
51
9.7326098
0
ARC
8
right_labelLayer
10
175.2918819
20
166.6096298
40
0.8774941
50
340.5269025
51
0.720185
0
ARC
8
right_labelLayer
10
175.4208062
20
166.5775301
40
0.7453518
50
302.9903798
51
339.5494322
0
ARC
8
right_labelLayer
10
175.284943
20
166.7502899
40
0.9644387
50
303.1877355
51
304.1720683
0
ARC
8
right_labelLayer
10
175.1593363
20
166.9678938
40
1.215383
50
286.2542417
51
302.527967
0
ARC
8
right_labelLayer
10
174.9297982
20
167.725022
40
2.0065137
50
276.4940345
51
286.4953318
0
ARC
8
right_labelLayer
10
174.7865869
20
168.9221778
40
3.2121926
50
269.7544803
51
276.6170091
0
ARC
8
right_labelLayer
10
174.7621264
20
167.9806168
40
2.2706272
50
262.5634326
51
270.2698957
0
ARC
8
right_labelLayer
10
174.6509155
20
167.1563353
40
1.4388897
50
251.2102086
51
262.7063835
0
ARC
8
right_labelLayer
10
174.4906173
20
166.6858387
40
0.9418359
50
235.9667337
51
251.2229718
0
ARC
8
right_labelLayer
10
174.3207242
20
166.4434705
40
0.645918
50
208.9036286
51
236.4231523
0
ARC
8
right_labelLayer
10
174.3363211
20
166.4369323
40
0.6565458
50
182.207991
51
207.7461718
0
ARC
8
right_labelLayer
10
174.5349341
20
166.4567631
40
0.8558618
50
179.9784445
51
183.0223426
0
ARC
8
right_labelLayer
10
174.2986597
20
166.4679567
40
0.6196828
50
138.3916035
51
181.0052413
0
ARC
8
right_labelLayer
10
174.3640976
20
166.4091481
40
0.7076621
50
113.8120952
51
138.3496539
0
ARC
8
right_labelLayer
10
174.4882302
20
166.1410944
40
1.003029
50
102.2870884
51
114.1172558
0
ARC
8
right_labelLayer
10
174.4492242
20
167.5038857
40
0.4206196
50
216.586089
51
245.4969033
0
ARC
8
right_labelLayer
10
174.5095964
20
167.5550915
40
0.4996428
50
215.465771
51
217.1746814
0
ARC
8
right_labelLayer
10
174.4091446
20
167.48253
40
0.375728
50
182.1767798
51
215.3415239
0
ARC
8
right_labelLayer
10
174.4984031
20
167.4921051
40
0.4653268
50
179.9832208
51
182.9374802
0
ARC
8
right_labelLayer
10
174.4965096
20
167.4961596
40
0.46345
50
161.7225377
51
180.4844117
0
ARC
8
right_labelLayer
10
174.4455565
20
167.5100634
40
0.4107163
50
144.4963387
51
161.3350725
0
ARC
8
right_labelLayer
10
174.5813889
20
167.4088299
40
0.5800972
50
132.7259417
51
144.1480086
0
ARC
8
right_labelLayer
10
174.7990966
20
167.176343
40
0.8985994
50
125.2213374
51
132.8655257
0
ARC
8
right_labelLayer
10
175.0179692
20
166.8724094
40
1.2731286
50
121.2353127
51
125.3794794
0
ARC
8
right_labelLayer
10
174.6299595
20
168.6172666
40
0.7104767
50
215.1640803
51
247.4748017
0
ARC
8
right_labelLayer
10
174.7625519
20
168.7242781
40
0.880572
50
212.4713373
51
215.8876355
0
ARC
8
right_labelLayer
10
174.7277065
20
168.6993476
40
0.8377929
50
183.0160742
51
212.3123286
0
ARC
8
right_labelLayer
10
174.9115922
20
168.7198394
40
1.022559
50
179.9759441
51
183.6205541
0
ARC
8
right_labelLayer
10
175.0598916
20
168.730159
40
1.1709002
50
166.8195736
51
180.4839721
0
ARC
8
right_labelLayer
10
174.6714592
20
168.8282303
40
0.7703693
50
132.3287692
51
167.3341074
0
ARC
8
right_labelLayer
10
174.7234269
20
168.7535314
40
0.8606698
50
106.2188925
51
131.5377696
0
ARC
8
right_labelLayer
10
174.8549143
20
168.3277862
40
1.3062171
50
93.6329726
51
106.5408745
0
ARC
8
right_labelLayer
10
174.8978393
20
167.8458457
40
1.7899513
50
89.9380271
51
94.0267163
0
ARC
8
right_labelLayer
10
174.9047913
20
168.0823796
40
1.5534245
50
82.5852163
51
90.1850046
0
ARC
8
right_labelLayer
10
174.9522544
20
168.4496204
40
1.1831294
50
74.0088545
51
82.5693936
0
ARC
8
right_labelLayer
10
174.4766903
20
166.4564328
40
0.4070307
50
179.22082
51
200.9355699
0
ARC
8
right_labelLayer
10
174.4282856
20
166.4452241
40
0.3578817
50
202.0286556
51
236.1457525
0
ARC
8
right_labelLayer
10
174.5012321
20
166.5378423
40
0.4755192
50
235.0633149
51
238.5040559
0
ARC
8
right_labelLayer
10
174.5860449
20
166.6893324
40
0.6490366
50
239.1066779
51
254.4862986
0
ARC
8
right_labelLayer
10
174.6991189
20
167.0792129
40
1.0549666
50
254.2324795
51
263.4937669
0
ARC
8
right_labelLayer
10
174.7701453
20
167.6808056
40
1.6607348
50
263.4109076
51
270.1457881
0
ARC
8
right_labelLayer
10
174.7775843
20
168.0028323
40
1.9827589
50
269.907145
51
270.0034899
0
ARC
8
right_labelLayer
10
174.7874198
20
168.7444958
40
2.7244397
50
269.7956966
51
275.3990979
0
ARC
8
right_labelLayer
10
174.8893852
20
167.6977077
40
1.6727041
50
275.2957217
51
283.3516538
0
ARC
8
right_labelLayer
10
175.0555133
20
167.0134667
40
0.968601
50
283.137035
51
295.8572831
0
ARC
8
right_labelLayer
10
175.1786431
20
166.7446695
40
0.6730448
50
296.4045346
51
301.8012345
0
ARC
8
right_labelLayer
10
175.2268701
20
166.6782112
40
0.5911788
50
301.2230681
51
318.6238223
0
ARC
8
right_labelLayer
10
175.3357227
20
166.5776597
40
0.4430467
50
319.0765694
51
1.1406856
0
ARC
8
right_labelLayer
10
175.2303725
20
166.5908225
40
0.5483263
50
359.5462015
51
10.9905214
0
ARC
8
right_labelLayer
10
175.442175
20
166.6339034
40
0.332201
50
10.6608611
51
30.9362482
0
ARC
8
right_labelLayer
10
175.5093274
20
166.6711715
40
0.2554555
50
31.509454
51
58.0776764
0
ARC
8
right_labelLayer
10
175.4463886
20
166.5584759
40
0.3844372
50
58.9972302
51
73.8586689
0
ARC
8
right_labelLayer
10
175.3191722
20
166.1420036
40
0.8198839
50
73.4100962
51
81.5907575
0
ARC
8
right_labelLayer
10
175.2113838
20
165.4444651
40
1.5256934
50
81.4172704
51
86.5756877
0
ARC
8
right_labelLayer
10
175.1453305
20
164.3934977
40
2.5787317
50
86.5054509
51
90.1399173
0
ARC
8
right_labelLayer
10
174.6473981
20
166.0406197
40
0.9316201
50
89.6435809
51
100.0208155
0
ARC
8
right_labelLayer
10
174.5888447
20
166.3591574
40
0.6077573
50
99.8103355
51
116.8229821
0
ARC
8
right_labelLayer
10
174.5318038
20
166.479446
40
0.4746843
50
117.2303408
51
130.5024018
0
ARC
8
right_labelLayer
10
174.5025223
20
166.517079
40
0.4270568
50
130.7944635
51
169.0413337
0
ARC
8
right_labelLayer
10
174.718171
20
166.4662918
40
0.6484882
50
168.2579647
51
180.3820357
0
ARC
8
right_labelLayer
10
175.0804735
20
168.7239827
40
0.7910728
50
179.561694
51
191.6530017
0
ARC
8
right_labelLayer
10
174.8054355
20
168.6645588
40
0.5097079
50
191.3555842
51
213.3660162
0
ARC
8
right_labelLayer
10
174.7393791
20
168.6264175
40
0.4335854
50
213.9574302
51
227.7972149
0
ARC
8
right_labelLayer
10
174.796848
20
168.6961177
40
0.5238397
50
228.2620926
51
254.7341459
0
ARC
8
right_labelLayer
10
174.8702675
20
168.9478015
40
0.7859873
50
254.4016686
51
267.434847
0
ARC
8
right_labelLayer
10
174.8894215
20
169.2046958
40
1.0435093
50
267.015495
51
270.0322986
0
ARC
8
right_labelLayer
10
174.901942
20
169.0440125
40
0.8829065
50
269.2256373
51
284.3773108
0
ARC
8
right_labelLayer
10
175.0222805
20
168.6247521
40
0.4470696
50
282.7796498
51
346.4828355
0
ARC
8
right_labelLayer
10
174.6624931
20
168.7266635
40
0.820848
50
345.4362639
51
0.7465437
0
ARC
8
right_labelLayer
10
174.6119207
20
168.7498202
40
0.8714399
50
359.1806342
51
15.0431
0
ARC
8
right_labelLayer
10
175.006788
20
168.8650061
40
0.4602914
50
13.953545
51
77.6673928
0
ARC
8
right_labelLayer
10
174.8934984
20
168.4590228
40
0.8814293
50
76.1095357
51
90.7028852
0
ARC
8
right_labelLayer
10
174.87654
20
168.4900325
40
0.8503756
50
89.5859294
51
101.3334377
0
ARC
8
right_labelLayer
10
174.8157694
20
168.779879
40
0.5542448
50
101.0620259
51
121.9738373
0
ARC
8
right_labelLayer
10
174.7730683
20
168.8567005
40
0.4664873
50
122.5212163
51
134.996448
0
ARC
8
right_labelLayer
10
174.7906433
20
168.8461764
40
0.4863817
50
135.5839213
51
163.0016226
0
ARC
8
right_labelLayer
10
175.0474795
20
168.7619925
40
0.7566275
50
162.5910795
51
175.7344187
0
ARC
8
right_labelLayer
10
175.3555866
20
168.7316419
40
1.0661639
50
175.3394448
51
180.0863912
0
LINE
8
right_labelLayer
10
178.9891309
20
166.9111866
11
178.5838574
21
166.9111866
0
LINE
8
right_labelLayer
10
178.5838574
20
166.9111866
11
178.5838574
21
168.6421437
0
LINE
8
right_labelLayer
10
177.1580762
20
168.3101124
11
177.1580762
21
166.9111866
0
LINE
8
right_labelLayer
10
177.1580762
20
166.9111866
11
176.7528027
21
166.9111866
0
LINE
8
right_labelLayer
10
176.7528027
20
166.9111866
11
176.7528027
21
170.7100148
0
LINE
8
right_labelLayer
10
176.7528027
20
170.7100148
11
177.1580762
21
170.7100148
0
LINE
8
right_labelLayer
10
177.1580762
20
170.7100148
11
177.1580762
21
169.5601124
0
LINE
8
right_labelLayer
10
177.1385449
20
169.2158741
11
177.162959
21
169.2158741
0
LINE
8
right_labelLayer
10
178.9891309
20
168.6567921
11
178.9891309
21
166.9111866
0
ARC
8
right_labelLayer
10
177.4382756
20
168.6487136
40
1.1456007
50
359.6714119
51
8.6877663
0
ARC
8
right_labelLayer
10
177.8628685
20
168.7160524
40
0.7157121
50
8.4931106
51
22.6580452
0
ARC
8
right_labelLayer
10
178.078591
20
168.8057012
40
0.4821038
50
22.7023903
51
42.3420753
0
ARC
8
right_labelLayer
10
178.1028348
20
168.8166055
40
0.4569146
50
43.3791446
51
71.5385507
0
ARC
8
right_labelLayer
10
178.0121584
20
168.5632317
40
0.7259861
50
71.0827818
51
84.3690559
0
ARC
8
right_labelLayer
10
177.9714559
20
168.2171552
40
1.0744062
50
84.0198126
51
90.1510699
0
ARC
8
right_labelLayer
10
177.9598878
20
168.0651851
40
1.2264037
50
89.5918988
51
100.3595781
0
ARC
8
right_labelLayer
10
177.8730475
20
168.5215356
40
0.7618838
50
100.1067964
51
118.0847299
0
ARC
8
right_labelLayer
10
177.784721
20
168.6948533
40
0.5674036
50
118.4550861
51
139.6706886
0
ARC
8
right_labelLayer
10
177.8733928
20
168.6342435
40
0.6743197
50
140.6208003
51
160.5049586
0
ARC
8
right_labelLayer
10
178.340794
20
168.4612115
40
1.1726918
50
160.1566684
51
171.5312654
0
ARC
8
right_labelLayer
10
179.0970792
20
168.3413893
40
1.93839
50
171.3202838
51
178.3406599
0
ARC
8
right_labelLayer
10
179.7733547
20
168.3111664
40
2.6152788
50
178.1078324
51
180.0230901
0
ARC
8
right_labelLayer
10
173.5122505
20
169.5557667
40
3.6458283
50
357.8674741
51
0.0682958
0
ARC
8
right_labelLayer
10
174.750687
20
169.5085246
40
2.4064918
50
354.9829845
51
357.8942806
0
ARC
8
right_labelLayer
10
175.5689001
20
169.4372797
40
1.585183
50
351.9711373
51
354.9619427
0
ARC
8
right_labelLayer
10
177.8494233
20
168.7864667
40
0.8097062
50
119.8315784
51
147.9725782
0
ARC
8
right_labelLayer
10
177.9474392
20
168.6359066
40
0.9891259
50
116.6657026
51
120.4184605
0
ARC
8
right_labelLayer
10
177.9657767
20
168.5877618
40
1.0403927
50
96.66522
51
116.3782606
0
ARC
8
right_labelLayer
10
178.005223
20
168.3156135
40
1.315302
50
89.8927306
51
96.9959377
0
ARC
8
right_labelLayer
10
178.0178364
20
167.9866962
40
1.6442484
50
80.6862831
51
90.3537204
0
ARC
8
right_labelLayer
10
178.1202184
20
168.588886
40
1.0334339
50
65.6023199
51
80.8844246
0
ARC
8
right_labelLayer
10
178.2431596
20
168.865779
40
0.7304882
50
46.7401062
51
65.4130663
0
ARC
8
right_labelLayer
10
178.2515142
20
168.8921614
40
0.7056516
50
19.2204897
51
45.7660444
0
ARC
8
right_labelLayer
10
177.844637
20
168.7413294
40
1.1395349
50
6.4733426
51
19.6468065
0
ARC
8
right_labelLayer
10
177.2366369
20
168.663077
40
1.7525052
50
359.7945237
51
6.7743529
0
LINE
8
right_labelLayer
10
181.0521191
20
167.2456593
11
181.0521191
21
166.9356007
0
LINE
8
right_labelLayer
10
179.8509473
20
167.6802296
11
179.8509473
21
169.2720265
0
LINE
8
right_labelLayer
10
179.8509473
20
169.2720265
11
179.4676465
21
169.2720265
0
LINE
8
right_labelLayer
10
179.4676465
20
169.2720265
11
179.4676465
21
169.467339
0
LINE
8
right_labelLayer
10
179.4676465
20
169.467339
11
179.8509473
21
169.635796
0
LINE
8
right_labelLayer
10
179.8509473
20
169.635796
11
180.0218457
21
170.2070851
0
LINE
8
right_labelLayer
10
180.0218457
20
170.2070851
11
180.2562207
21
170.2070851
0
LINE
8
right_labelLayer
10
180.2562207
20
170.2070851
11
180.2562207
21
169.5869679
0
LINE
8
right_labelLayer
10
180.2562207
20
169.5869679
11
181.0325879
21
169.5869679
0
LINE
8
right_labelLayer
10
181.0325879
20
169.5869679
11
181.0325879
21
169.2720265
0
LINE
8
right_labelLayer
10
181.0325879
20
169.2720265
11
180.2562207
21
169.2720265
0
LINE
8
right_labelLayer
10
180.2562207
20
169.2720265
11
180.2562207
21
167.6973195
0
ARC
8
right_labelLayer
10
180.6886888
20
168.5277924
40
1.3309642
50
269.8802997
51
278.3028363
0
ARC
8
right_labelLayer
10
180.7014516
20
168.4235709
40
1.2259943
50
278.4159829
51
279.0089104
0
ARC
8
right_labelLayer
10
180.5520193
20
169.3782596
40
2.1923063
50
278.9591523
51
280.5106391
0
ARC
8
right_labelLayer
10
180.6942339
20
168.6151798
40
1.4160879
50
280.4851954
51
282.6264461
0
ARC
8
right_labelLayer
10
180.8191821
20
168.0600369
40
0.847058
50
282.587502
51
285.5796152
0
ARC
8
right_labelLayer
10
180.8813832
20
167.8311733
40
0.6098994
50
285.7253995
51
286.2566896
0
ARC
8
right_labelLayer
10
180.8817331
20
167.2959749
40
0.3986239
50
287.9888329
51
295.3049282
0
ARC
8
right_labelLayer
10
180.7855934
20
167.5868349
40
0.7049584
50
283.3068847
51
288.1199544
0
ARC
8
right_labelLayer
10
180.6839967
20
168.0106433
40
1.140773
50
280.0070995
51
283.3733034
0
ARC
8
right_labelLayer
10
180.6162088
20
168.3784144
40
1.5147311
50
279.1862642
51
280.1148614
0
ARC
8
right_labelLayer
10
180.574357
20
168.6165105
40
1.756458
50
275.5259205
51
279.2940497
0
ARC
8
right_labelLayer
10
180.6213505
20
168.1256432
40
1.2633467
50
270.8932729
51
275.5483032
0
ARC
8
right_labelLayer
10
180.6272725
20
167.9001765
40
1.0378179
50
270.0023145
51
270.7604253
0
ARC
8
right_labelLayer
10
180.6109599
20
167.9207429
40
1.0585107
50
253.7847598
51
270.8852869
0
ARC
8
right_labelLayer
10
180.4855546
20
167.4930654
40
0.6128283
50
190.3817649
51
253.8772393
0
ARC
8
right_labelLayer
10
181.1247511
20
167.6658923
40
1.2738846
50
179.3551319
51
192.847745
0
ARC
8
right_labelLayer
10
181.0722755
20
167.6922144
40
0.8160708
50
179.6415763
51
189.7507023
0
ARC
8
right_labelLayer
10
180.784201
20
167.6408317
40
0.5234589
50
189.5480204
51
205.7872936
0
ARC
8
right_labelLayer
10
180.6658038
20
167.5862357
40
0.3931082
50
206.1294381
51
221.4083293
0
ARC
8
right_labelLayer
10
180.6525274
20
167.5761628
40
0.3764902
50
221.5949792
51
262.3504868
0
ARC
8
right_labelLayer
10
180.6841006
20
167.7385279
40
0.5416998
50
261.3266402
51
270.1911896
0
LINE
8
bottom_outsideCutPath
10
351.76
20
74
11
188.38
21
74
0
LINE
8
bottom_labelLayer
10
258.4966427
20
53.2345662
11
258.4532833
21
53.2345662
0
LINE
8
bottom_labelLayer
10
258.4532833
20
53.2345662
11
258.3268185
21
52.7250935
0
LINE
8
bottom_labelLayer
10
258.3268185
20
52.7250935
11
257.896838
21
52.7250935
0
LINE
8
bottom_labelLayer
10
257.896838
20
52.7250935
11
257.896838
21
58.3473591
0
LINE
8
bottom_labelLayer
10
257.896838
20
58.3473591
11
258.4966427
21
58.3473591
0
LINE
8
bottom_labelLayer
10
258.4966427
20
58.3473591
11
258.4966427
21
56.9815388
0
LINE
8
bottom_labelLayer
10
258.4677364
20
56.1577107
11
258.4966427
21
56.1577107
0
ARC
8
bottom_labelLayer
10
259.7576041
20
54.91716
40
1.8332171
50
74.2393621
51
90.5623567
0
ARC
8
bottom_labelLayer
10
259.8788226
20
55.3618593
40
1.3723172
50
38.5631341
51
74.0670289
0
ARC
8
bottom_labelLayer
10
259.5668744
20
55.119302
40
1.7674474
50
16.4709137
51
38.4075193
0
ARC
8
bottom_labelLayer
10
258.6681866
20
54.8375004
40
2.7091993
50
5.1338705
51
16.7973216
0
ARC
8
bottom_labelLayer
10
257.5336858
20
54.7169873
40
3.8499773
50
359.8779308
51
5.4093536
0
ARC
8
bottom_labelLayer
10
257.8669211
20
54.6880367
40
3.5167945
50
350.6562814
51
0.3380327
0
ARC
8
bottom_labelLayer
10
259.0929257
20
54.4795077
40
2.2732102
50
335.8306192
51
350.8254576
0
ARC
8
bottom_labelLayer
10
259.6322298
20
54.2467378
40
1.6858988
50
321.3161729
51
335.5436065
0
ARC
8
bottom_labelLayer
10
259.8384119
20
54.0787316
40
1.4199458
50
274.0640049
51
321.4081084
0
ARC
8
bottom_labelLayer
10
259.7423584
20
54.6871615
40
2.0343356
50
269.9226318
51
275.5482091
0
ARC
8
bottom_labelLayer
10
259.7294973
20
54.4721428
40
1.819343
50
255.7755585
51
270.3185216
0
ARC
8
bottom_labelLayer
10
259.6775815
20
54.2414787
40
1.5830069
50
245.9802037
51
255.545548
0
ARC
8
bottom_labelLayer
10
259.5770167
20
54.0076112
40
1.3284602
50
215.5850316
51
245.836153
0
ARC
8
bottom_labelLayer
10
245.9912412
20
56.970961
40
12.5054059
50
358.1123387
51
0.048464
0
ARC
8
bottom_labelLayer
10
249.4713506
20
56.8541338
40
9.0233369
50
355.7239063
51
358.1258589
0
ARC
8
bottom_labelLayer
10
251.0004847
20
56.7490976
40
7.4906333
50
355.4717749
51
355.6529812
0
ARC
8
bottom_labelLayer
10
259.615252
20
55.3776743
40
1.3637242
50
95.1835038
51
145.1108993
0
ARC
8
bottom_labelLayer
10
259.7351183
20
54.7017364
40
2.0485573
50
89.8743333
51
96.8145294
0
ARC
8
bottom_labelLayer
10
259.6403354
20
54.5625912
40
1.6854983
50
89.573133
51
100.7324457
0
ARC
8
bottom_labelLayer
10
259.5155614
20
55.1929902
40
1.0429037
50
100.4469492
51
119.670084
0
ARC
8
bottom_labelLayer
10
259.3998585
20
55.4093105
40
0.7976986
50
120.1402987
51
142.4248894
0
ARC
8
bottom_labelLayer
10
259.5912777
20
55.2826802
40
1.0267585
50
143.3382077
51
161.256001
0
ARC
8
bottom_labelLayer
10
260.3917699
20
54.9984795
40
1.8761585
50
160.892665
51
171.2334493
0
ARC
8
bottom_labelLayer
10
261.7280656
20
54.7829008
40
3.2297128
50
171.0667477
51
177.8457088
0
ARC
8
bottom_labelLayer
10
263.1179095
20
54.7122155
40
4.621268
50
177.6177004
51
180.0425339
0
ARC
8
bottom_labelLayer
10
262.4624878
20
54.693299
40
3.9658753
50
179.776272
51
185.7075065
0
ARC
8
bottom_labelLayer
10
260.8988802
20
54.5321929
40
2.394002
50
185.5924716
51
194.2050384
0
ARC
8
bottom_labelLayer
10
259.8972411
20
54.2722332
40
1.3592112
50
193.9430013
51
208.0219035
0
ARC
8
bottom_labelLayer
10
259.4920094
20
54.0660816
40
0.9046727
50
208.5537453
51
217.5604003
0
ARC
8
bottom_labelLayer
10
259.4589725
20
54.0523363
40
0.8701539
50
218.1690354
51
253.8047099
0
ARC
8
bottom_labelLayer
10
259.6203695
20
54.5499383
40
1.3931191
50
253.1382236
51
266.8482984
0
ARC
8
bottom_labelLayer
10
259.6656304
20
55.0836903
40
1.9286173
50
266.3775098
51
270.0509605
0
ARC
8
bottom_labelLayer
10
259.6801412
20
54.3507078
40
1.1957023
50
269.3868567
51
285.8630671
0
ARC
8
bottom_labelLayer
10
259.7689741
20
54.029654
40
0.8625964
50
286.0162834
51
326.8497538
0
ARC
8
bottom_labelLayer
10
259.3402167
20
54.3136902
40
1.3768945
50
326.7105097
51
343.6661655
0
ARC
8
bottom_labelLayer
10
258.5375926
20
54.5589439
40
2.2161187
50
343.4171801
51
353.6368631
0
ARC
8
bottom_labelLayer
10
257.3253391
20
54.7027822
40
3.4368563
50
353.4935144
51
0.2205448
0
ARC
8
bottom_labelLayer
10
257.2185322
20
54.7303571
40
3.5436669
50
359.7680517
51
6.309553
0
ARC
8
bottom_labelLayer
10
258.5533511
20
54.8835386
40
2.2001058
50
6.1648365
51
16.0396662
0
ARC
8
bottom_labelLayer
10
259.413222
20
55.1369431
40
1.3037063
50
15.7779567
51
32.0151459
0
ARC
8
bottom_labelLayer
10
259.6811214
20
55.2903334
40
0.9953054
50
32.7038973
51
35.523899
0
ARC
8
bottom_labelLayer
10
259.7794332
20
55.3602025
40
0.8746953
50
35.540846
51
79.8011075
0
ARC
8
bottom_labelLayer
10
259.6619719
20
54.8608454
40
1.3872269
50
78.6781764
51
90.3749945
0
ARC
8
bottom_labelLayer
10
262.7514935
20
54.6878991
40
3.0982469
50
349.1762084
51
0.3862439
0
ARC
8
bottom_labelLayer
10
263.7946088
20
54.4799526
40
2.0346565
50
330.2506976
51
349.4116589
0
ARC
8
bottom_labelLayer
10
264.1156151
20
54.3131065
40
1.6732293
50
318.1440179
51
329.7566165
0
ARC
8
bottom_labelLayer
10
264.1735595
20
54.2666709
40
1.5990914
50
278.8959217
51
317.9979141
0
ARC
8
bottom_labelLayer
10
264.0242753
20
54.9818986
40
2.3290929
50
269.7502566
51
279.8033482
0
ARC
8
bottom_labelLayer
10
264.0000634
20
54.5789224
40
1.9261459
50
253.5437181
51
270.4182285
0
ARC
8
bottom_labelLayer
10
263.9359433
20
54.3308901
40
1.6701327
50
238.8115219
51
253.2428526
0
ARC
8
bottom_labelLayer
10
263.9152532
20
54.289283
40
1.6238292
50
207.7947194
51
238.6757945
0
ARC
8
bottom_labelLayer
10
264.2119934
20
54.4710414
40
1.971215
50
205.6558846
51
208.4462915
0
ARC
8
bottom_labelLayer
10
264.4408807
20
54.566429
40
2.2188747
50
188.9102186
51
205.3171814
0
ARC
8
bottom_labelLayer
10
265.2116706
20
54.6969751
40
3.000598
50
179.7744935
51
189.0932543
0
ARC
8
bottom_labelLayer
10
265.325352
20
54.7298788
40
3.1143277
50
169.2442985
51
180.3880775
0
ARC
8
bottom_labelLayer
10
264.267755
20
54.9389268
40
2.0363135
50
150.7111767
51
169.469528
0
ARC
8
bottom_labelLayer
10
263.9301356
20
55.1123055
40
1.6570934
50
138.1759787
51
150.2287399
0
ARC
8
bottom_labelLayer
10
263.873971
20
55.1554046
40
1.5865082
50
99.1759392
51
137.9832808
0
ARC
8
bottom_labelLayer
10
264.0285454
20
54.4279686
40
2.3295723
50
89.7326331
51
100.0760174
0
ARC
8
bottom_labelLayer
10
264.0594395
20
54.7421191
40
2.0154957
50
73.5222732
51
90.5692259
0
ARC
8
bottom_labelLayer
10
264.177637
20
55.1715603
40
1.5701886
50
41.1445615
51
73.213398
0
ARC
8
bottom_labelLayer
10
263.9520071
20
54.9776345
40
1.8676967
50
13.5014473
51
41.070338
0
ARC
8
bottom_labelLayer
10
263.0802845
20
54.7495179
40
2.7686472
50
1.1277496
51
13.8799805
0
ARC
8
bottom_labelLayer
10
262.3296622
20
54.7092899
40
3.5200077
50
359.9917806
51
1.5419551
0
ARC
8
bottom_labelLayer
10
265.8699616
20
54.6931986
40
3.0374215
50
179.7059901
51
187.9160453
0
ARC
8
bottom_labelLayer
10
264.7559074
20
54.5331669
40
1.9119499
50
187.7638981
51
200.0977163
0
ARC
8
bottom_labelLayer
10
264.1422052
20
54.3083046
40
1.2583496
50
200.0845936
51
216.9131594
0
ARC
8
bottom_labelLayer
10
263.9180985
20
54.1482814
40
0.9830779
50
217.3009286
51
261.7099371
0
ARC
8
bottom_labelLayer
10
264.0221357
20
54.6447334
40
1.4896732
50
260.5033219
51
270.2477194
0
ARC
8
bottom_labelLayer
10
264.0419936
20
54.5482015
40
1.3931921
50
269.4481944
51
284.7256007
0
ARC
8
bottom_labelLayer
10
264.1522854
20
54.1391684
40
0.969563
50
284.5662247
51
322.6333866
0
ARC
8
bottom_labelLayer
10
263.8944182
20
54.3254658
40
1.2876016
50
323.0089403
51
342.6390382
0
ARC
8
bottom_labelLayer
10
263.1568774
20
54.5665155
40
2.063494
50
342.3615617
51
353.7537993
0
ARC
8
bottom_labelLayer
10
262.06874
20
54.697678
40
3.1594652
50
353.5363007
51
0.2014202
0
ARC
8
bottom_labelLayer
10
262.2354526
20
54.7240586
40
2.992772
50
359.7075882
51
7.8972923
0
ARC
8
bottom_labelLayer
10
263.3314917
20
54.8811867
40
1.8855457
50
7.7440025
51
20.0690424
0
ARC
8
bottom_labelLayer
10
263.9422459
20
55.1053118
40
1.234968
50
20.0256884
51
37.4350608
0
ARC
8
bottom_labelLayer
10
264.1448877
20
55.2491033
40
0.9866974
50
37.9577708
51
80.4006088
0
ARC
8
bottom_labelLayer
10
264.029733
20
54.7352949
40
1.512771
50
79.3453446
51
90.3175182
0
ARC
8
bottom_labelLayer
10
264.0084087
20
54.8206374
40
1.427464
50
89.480564
51
103.880488
0
ARC
8
bottom_labelLayer
10
263.8884654
20
55.2773824
40
0.9553072
50
103.4685206
51
142.3118974
0
ARC
8
bottom_labelLayer
10
264.1216466
20
55.1133926
40
1.2401584
50
142.9025748
51
162.3749534
0
ARC
8
bottom_labelLayer
10
264.8564042
20
54.8685374
40
2.0145936
50
162.0653343
51
173.1674748
0
ARC
8
bottom_labelLayer
10
266.0020426
20
54.722416
40
3.1694918
50
173.008579
51
180.2464141
0
LINE
8
bottom_labelLayer
10
268.7222286
20
53.220113
11
268.7222286
21
52.7612263
0
LINE
8
bottom_labelLayer
10
266.9444942
20
53.8632771
11
266.9444942
21
56.2191365
0
LINE
8
bottom_labelLayer
10
266.9444942
20
56.2191365
11
266.3772091
21
56.2191365
0
LINE
8
bottom_labelLayer
10
266.3772091
20
56.2191365
11
266.3772091
21
56.508199
0
LINE
8
bottom_labelLayer
10
266.3772091
20
56.508199
11
266.9444942
21
56.7575154
0
LINE
8
bottom_labelLayer
10
266.9444942
20
56.7575154
11
267.1974239
21
57.6030232
0
LINE
8
bottom_labelLayer
10
267.1974239
20
57.6030232
11
267.5442989
21
57.6030232
0
LINE
8
bottom_labelLayer
10
267.5442989
20
57.6030232
11
267.5442989
21
56.6852497
0
LINE
8
bottom_labelLayer
10
267.5442989
20
56.6852497
11
268.6933224
21
56.6852497
0
LINE
8
bottom_labelLayer
10
268.6933224
20
56.6852497
11
268.6933224
21
56.2191365
0
LINE
8
bottom_labelLayer
10
268.6933224
20
56.2191365
11
267.5442989
21
56.2191365
0
LINE
8
bottom_labelLayer
10
267.5442989
20
56.2191365
11
267.5442989
21
53.8885701
0
ARC
8
bottom_labelLayer
10
268.1843498
20
55.1176734
40
1.9698303
50
269.8803554
51
278.3028772
0
ARC
8
bottom_labelLayer
10
268.203839
20
54.959686
40
1.810688
50
278.4145587
51
279.0087252
0
ARC
8
bottom_labelLayer
10
267.9820788
20
56.376436
40
3.2446872
50
278.9589825
51
280.510434
0
ARC
8
bottom_labelLayer
10
268.1928308
20
55.2456723
40
2.0944518
50
280.4844949
51
282.6271344
0
ARC
8
bottom_labelLayer
10
268.3774354
20
54.4255787
40
1.2538383
50
282.5877141
51
285.5793678
0
ARC
8
bottom_labelLayer
10
268.4697219
20
54.0860556
40
0.9020067
50
285.7248856
51
286.2565552
0
ARC
8
bottom_labelLayer
10
268.4700551
20
53.2945881
40
0.5899714
50
287.9887918
51
295.3047865
0
ARC
8
bottom_labelLayer
10
268.3277399
20
53.725162
40
1.0434516
50
283.3071439
51
288.1196913
0
ARC
8
bottom_labelLayer
10
268.1774549
20
54.3520492
40
1.6880993
50
280.0069275
51
283.3736195
0
ARC
8
bottom_labelLayer
10
268.0763678
20
54.9008528
40
2.2461233
50
279.1868758
51
280.1136864
0
ARC
8
bottom_labelLayer
10
268.0151162
20
55.249149
40
2.5997356
50
275.5260841
51
279.2939555
0
ARC
8
bottom_labelLayer
10
268.084691
20
54.5224623
40
1.8697262
50
270.8932865
51
275.5483838
0
ARC
8
bottom_labelLayer
10
268.0934483
20
54.1884595
40
1.5356316
50
270.002589
51
270.7608671
0
ARC
8
bottom_labelLayer
10
268.0693131
20
54.2192397
40
1.5665988
50
253.7847825
51
270.8852773
0
ARC
8
bottom_labelLayer
10
267.8837132
20
53.5862742
40
0.906986
50
190.3817746
51
253.877236
0
ARC
8
bottom_labelLayer
10
268.8297224
20
53.8420574
40
1.8853476
50
179.3551196
51
192.8477442
0
ARC
8
bottom_labelLayer
10
268.7520822
20
53.8810161
40
1.2078069
50
179.6416559
51
189.7505968
0
ARC
8
bottom_labelLayer
10
268.3257116
20
53.804969
40
0.7747211
50
189.5480576
51
205.78729
0
ARC
8
bottom_labelLayer
10
268.1504778
20
53.7241638
40
0.5817955
50
206.1294146
51
221.4084293
0
ARC
8
bottom_labelLayer
10
268.130832
20
53.7092568
40
0.557204
50
221.5949282
51
262.3505484
0
ARC
8
bottom_labelLayer
10
268.1775607
20
53.949559
40
0.8017161
50
261.3266765
51
270.1912217
0
LINE
8
bottom_labelLayer
10
271.334631
20
53.220113
11
271.334631
21
52.7612263
0
LINE
8
bottom_labelLayer
10
269.5568966
20
53.8632771
11
269.5568966
21
56.2191365
0
LINE
8
bottom_labelLayer
10
269.5568966
20
56.2191365
11
268.9896114
21
56.2191365
0
LINE
8
bottom_labelLayer
10
268.9896114
20
56.2191365
11
268.9896114
21
56.508199
0
LINE
8
bottom_labelLayer
10
268.9896114
20
56.508199
11
269.5568966
21
56.7575154
0
LINE
8
bottom_labelLayer
10
269.5568966
20
56.7575154
11
269.8098263
21
57.6030232
0
LINE
8
bottom_labelLayer
10
269.8098263
20
57.6030232
11
270.1567013
21
57.6030232
0
LINE
8
bottom_labelLayer
10
270.1567013
20
57.6030232
11
270.1567013
21
56.6852497
0
LINE
8
bottom_labelLayer
10
270.1567013
20
56.6852497
11
271.3057247
21
56.6852497
0
LINE
8
bottom_labelLayer
10
271.3057247
20
56.6852497
11
271.3057247
21
56.2191365
0
LINE
8
bottom_labelLayer
10
271.3057247
20
56.2191365
11
270.1567013
21
56.2191365
0
LINE
8
bottom_labelLayer
10
270.1567013
20
56.2191365
11
270.1567013
21
53.8885701
0
ARC
8
bottom_labelLayer
10
270.7967521
20
55.1176734
40
1.9698303
50
269.8803554
51
278.3028772
0
ARC
8
bottom_labelLayer
10
270.8162413
20
54.959686
40
1.810688
50
278.4145587
51
279.0087252
0
ARC
8
bottom_labelLayer
10
270.5944811
20
56.376436
40
3.2446872
50
278.9589825
51
280.510434
0
ARC
8
bottom_labelLayer
10
270.8052332
20
55.2456723
40
2.0944518
50
280.4844949
51
282.6271344
0
ARC
8
bottom_labelLayer
10
270.9898377
20
54.4255787
40
1.2538383
50
282.5877141
51
285.5793678
0
ARC
8
bottom_labelLayer
10
271.0821242
20
54.0860556
40
0.9020067
50
285.7248856
51
286.2565552
0
ARC
8
bottom_labelLayer
10
271.0824575
20
53.2945881
40
0.5899714
50
287.9887918
51
295.3047865
0
ARC
8
bottom_labelLayer
10
270.9401423
20
53.725162
40
1.0434516
50
283.3071439
51
288.1196913
0
ARC
8
bottom_labelLayer
10
270.7898573
20
54.3520492
40
1.6880993
50
280.0069275
51
283.3736195
0
ARC
8
bottom_labelLayer
10
270.6887701
20
54.9008528
40
2.2461233
50
279.1868758
51
280.1136864
0
ARC
8
bottom_labelLayer
10
270.6275185
20
55.249149
40
2.5997356
50
275.5260841
51
279.2939555
0
ARC
8
bottom_labelLayer
10
270.6970933
20
54.5224623
40
1.8697262
50
270.8932865
51
275.5483838
0
ARC
8
bottom_labelLayer
10
270.7058506
20
54.1884595
40
1.5356316
50
270.002589
51
270.7608671
0
ARC
8
bottom_labelLayer
10
270.6817155
20
54.2192397
40
1.5665988
50
253.7847825
51
270.8852773
0
ARC
8
bottom_labelLayer
10
270.4961155
20
53.5862742
40
0.906986
50
190.3817746
51
253.877236
0
ARC
8
bottom_labelLayer
10
271.4421247
20
53.8420574
40
1.8853476
50
179.3551196
51
192.8477442
0
ARC
8
bottom_labelLayer
10
271.3644845
20
53.8810161
40
1.2078069
50
179.6416559
51
189.7505968
0
ARC
8
bottom_labelLayer
10
270.938114
20
53.804969
40
0.7747211
50
189.5480576
51
205.78729
0
ARC
8
bottom_labelLayer
10
270.7628801
20
53.7241638
40
0.5817955
50
206.1294146
51
221.4084293
0
ARC
8
bottom_labelLayer
10
270.7432343
20
53.7092568
40
0.557204
50
221.5949282
51
262.3505484
0
ARC
8
bottom_labelLayer
10
270.7899631
20
53.949559
40
0.8017161
50
261.3266765
51
270.1912217
0
ARC
8
bottom_labelLayer
10
272.4459271
20
54.6878991
40
3.0982469
50
349.1762084
51
0.3862439
0
ARC
8
bottom_labelLayer
10
273.4890424
20
54.4799526
40
2.0346565
50
330.2506976
51
349.4116589
0
ARC
8
bottom_labelLayer
10
273.8100487
20
54.3131065
40
1.6732293
50
318.1440179
51
329.7566165
0
ARC
8
bottom_labelLayer
10
273.8679931
20
54.2666709
40
1.5990914
50
278.8959217
51
317.9979141
0
ARC
8
bottom_labelLayer
10
273.7187089
20
54.9818986
40
2.3290929
50
269.7502566
51
279.8033482
0
ARC
8
bottom_labelLayer
10
273.694497
20
54.5789224
40
1.9261459
50
253.5437181
51
270.4182285
0
ARC
8
bottom_labelLayer
10
273.6303769
20
54.3308901
40
1.6701327
50
238.8115219
51
253.2428526
0
ARC
8
bottom_labelLayer
10
273.6096867
20
54.289283
40
1.6238292
50
207.7947194
51
238.6757945
0
ARC
8
bottom_labelLayer
10
273.906427
20
54.4710414
40
1.971215
50
205.6558846
51
208.4462915
0
ARC
8
bottom_labelLayer
10
274.1353143
20
54.566429
40
2.2188747
50
188.9102186
51
205.3171814
0
ARC
8
bottom_labelLayer
10
274.9061042
20
54.6969751
40
3.000598
50
179.7744935
51
189.0932543
0
ARC
8
bottom_labelLayer
10
275.0197856
20
54.7298788
40
3.1143277
50
169.2442985
51
180.3880775
0
ARC
8
bottom_labelLayer
10
273.9621886
20
54.9389268
40
2.0363135
50
150.7111767
51
169.469528
0
ARC
8
bottom_labelLayer
10
273.6245692
20
55.1123055
40
1.6570934
50
138.1759787
51
150.2287399
0
ARC
8
bottom_labelLayer
10
273.5684046
20
55.1554046
40
1.5865082
50
99.1759392
51
137.9832808
0
ARC
8
bottom_labelLayer
10
273.722979
20
54.4279686
40
2.3295723
50
89.7326331
51
100.0760174
0
ARC
8
bottom_labelLayer
10
273.7538731
20
54.7421191
40
2.0154957
50
73.5222732
51
90.5692259
0
ARC
8
bottom_labelLayer
10
273.8720706
20
55.1715603
40
1.5701886
50
41.1445615
51
73.213398
0
ARC
8
bottom_labelLayer
10
273.6464407
20
54.9776345
40
1.8676967
50
13.5014473
51
41.070338
0
ARC
8
bottom_labelLayer
10
272.7747181
20
54.7495179
40
2.7686472
50
1.1277496
51
13.8799805
0
ARC
8
bottom_labelLayer
10
272.0240958
20
54.7092899
40
3.5200077
50
359.9917806
51
1.5419551
0
ARC
8
bottom_labelLayer
10
275.5643952
20
54.6931986
40
3.0374215
50
179.7059901
51
187.9160453
0
ARC
8
bottom_labelLayer
10
274.4503409
20
54.5331669
40
1.9119499
50
187.7638981
51
200.0977163
0
ARC
8
bottom_labelLayer
10
273.8366387
20
54.3083046
40
1.2583496
50
200.0845936
51
216.9131594
0
ARC
8
bottom_labelLayer
10
273.6125321
20
54.1482814
40
0.9830779
50
217.3009286
51
261.7099371
0
ARC
8
bottom_labelLayer
10
273.7165693
20
54.6447334
40
1.4896732
50
260.5033219
51
270.2477194
0
ARC
8
bottom_labelLayer
10
273.7364272
20
54.5482015
40
1.3931921
50
269.4481944
51
284.7256007
0
ARC
8
bottom_labelLayer
10
273.846719
20
54.1391684
40
0.969563
50
284.5662247
51
322.6333866
0
ARC
8
bottom_labelLayer
10
273.5888517
20
54.3254658
40
1.2876016
50
323.0089403
51
342.6390382
0
ARC
8
bottom_labelLayer
10
272.851311
20
54.5665155
40
2.063494
50
342.3615617
51
353.7537993
0
ARC
8
bottom_labelLayer
10
271.7631736
20
54.697678
40
3.1594652
50
353.5363007
51
0.2014202
0
ARC
8
bottom_labelLayer
10
271.9298862
20
54.7240586
40
2.992772
50
359.7075882
51
7.8972923
0
ARC
8
bottom_labelLayer
10
273.0259252
20
54.8811867
40
1.8855457
50
7.7440025
51
20.0690424
0
ARC
8
bottom_labelLayer
10
273.6366795
20
55.1053118
40
1.234968
50
20.0256884
51
37.4350608
0
ARC
8
bottom_labelLayer
10
273.8393213
20
55.2491033
40
0.9866974
50
37.9577708
51
80.4006088
0
ARC
8
bottom_labelLayer
10
273.7241666
20
54.7352949
40
1.512771
50
79.3453446
51
90.3175182
0
ARC
8
bottom_labelLayer
10
273.7028423
20
54.8206374
40
1.427464
50
89.480564
51
103.880488
0
ARC
8
bottom_labelLayer
10
273.582899
20
55.2773824
40
0.9553072
50
103.4685206
51
142.3118974
0
ARC
8
bottom_labelLayer
10
273.8160801
20
55.1133926
40
1.2401584
50
142.9025748
51
162.3749534
0
ARC
8
bottom_labelLayer
10
274.5508378
20
54.8685374
40
2.0145936
50
162.0653343
51
173.1674748
0
ARC
8
bottom_labelLayer
10
275.6964762
20
54.722416
40
3.1694918
50
173.008579
51
180.2464141
0
LINE
8
bottom_labelLayer
10
282.243127
20
52.7250935
11
281.6433224
21
52.7250935
0
LINE
8
bottom_labelLayer
10
281.6433224
20
52.7250935
11
281.6433224
21
55.301363
0
LINE
8
bottom_labelLayer
10
279.7174435
20
54.9364216
11
279.7174435
21
52.7250935
0
LINE
8
bottom_labelLayer
10
279.7174435
20
52.7250935
11
279.1176388
21
52.7250935
0
LINE
8
bottom_labelLayer
10
279.1176388
20
52.7250935
11
279.1176388
21
55.301363
0
LINE
8
bottom_labelLayer
10
277.1953731
20
54.8027302
11
277.1953731
21
52.7250935
0
LINE
8
bottom_labelLayer
10
277.1953731
20
52.7250935
11
276.5955685
21
52.7250935
0
LINE
8
bottom_labelLayer
10
276.5955685
20
52.7250935
11
276.5955685
21
56.6852497
0
LINE
8
bottom_labelLayer
10
276.5955685
20
56.6852497
11
277.0833614
21
56.6852497
0
LINE
8
bottom_labelLayer
10
277.0833614
20
56.6852497
11
277.18092
21
56.1432576
0
LINE
8
bottom_labelLayer
10
277.18092
20
56.1432576
11
277.2098263
21
56.1432576
0
LINE
8
bottom_labelLayer
10
279.5945919
20
56.0854451
11
279.6234981
21
56.0854451
0
LINE
8
bottom_labelLayer
10
282.243127
20
55.3085896
11
282.243127
21
52.7250935
0
ARC
8
bottom_labelLayer
10
279.8738853
20
55.3107875
40
1.7694621
50
359.6948297
51
8.1471908
0
ARC
8
bottom_labelLayer
10
280.5256234
20
55.4072388
40
1.1106376
50
7.9864548
51
20.7948996
0
ARC
8
bottom_labelLayer
10
280.8859006
20
55.5452465
40
0.7248345
50
20.7071162
51
40.0218294
0
ARC
8
bottom_labelLayer
10
280.9649331
20
55.5969573
40
0.6311573
50
41.0407994
51
73.1792561
0
ARC
8
bottom_labelLayer
10
280.8505712
20
55.251071
40
0.9953827
50
72.6395006
51
86.2568522
0
ARC
8
bottom_labelLayer
10
280.8139303
20
54.8557169
40
1.392327
50
85.8143687
51
90.0684199
0
ARC
8
bottom_labelLayer
10
280.800472
20
54.7047005
40
1.5433873
50
89.5621011
51
101.2961721
0
ARC
8
bottom_labelLayer
10
280.6842302
20
55.2611908
40
0.9749206
50
101.0032461
51
121.784012
0
ARC
8
bottom_labelLayer
10
280.5958572
20
55.4189634
40
0.7943
50
122.3597321
51
140.2883618
0
ARC
8
bottom_labelLayer
10
280.7548475
20
55.3023868
40
0.9911613
50
140.9765055
51
161.1699745
0
ARC
8
bottom_labelLayer
10
281.3538147
20
55.0892274
40
1.6268935
50
160.8731738
51
172.5272503
0
ARC
8
bottom_labelLayer
10
282.3546819
20
54.9510001
40
2.6372463
50
172.3776494
51
180.18293
0
ARC
8
bottom_labelLayer
10
283.0997486
20
54.9364252
40
3.382305
50
179.8957383
51
180.0000613
0
ARC
8
bottom_labelLayer
10
277.3482017
20
55.3107875
40
1.7694621
50
359.6948297
51
8.1471908
0
ARC
8
bottom_labelLayer
10
277.9999398
20
55.4072388
40
1.1106376
50
7.9864548
51
20.7948996
0
ARC
8
bottom_labelLayer
10
278.360217
20
55.5452465
40
0.7248345
50
20.7071162
51
40.0218294
0
ARC
8
bottom_labelLayer
10
278.4408937
20
55.5980943
40
0.6291706
50
41.0610088
51
72.8993805
0
ARC
8
bottom_labelLayer
10
278.3243635
20
55.2511717
40
0.9950655
50
72.3601035
51
85.9561921
0
ARC
8
bottom_labelLayer
10
278.2849184
20
54.843487
40
1.4045568
50
85.5238938
51
90.0794473
0
ARC
8
bottom_labelLayer
10
278.2714618
20
54.7583446
40
1.4897426
50
89.5573567
51
101.4832484
0
ARC
8
bottom_labelLayer
10
278.1571169
20
55.2940679
40
0.9419946
50
101.1545876
51
123.0655649
0
ARC
8
bottom_labelLayer
10
278.0793969
20
55.4294552
40
0.7861782
50
123.7021049
51
142.3021631
0
ARC
8
bottom_labelLayer
10
278.2614622
20
55.3059417
40
1.0058569
50
143.0770357
51
161.3913593
0
ARC
8
bottom_labelLayer
10
278.9953525
20
55.0467489
40
1.7841255
50
161.023448
51
171.4468751
0
ARC
8
bottom_labelLayer
10
280.2102517
20
54.856438
40
3.0138265
50
171.3041621
51
178.3502033
0
ARC
8
bottom_labelLayer
10
281.3715774
20
54.8045699
40
4.1762048
50
178.0976035
51
180.0252391
0
ARC
8
bottom_labelLayer
10
278.2259756
20
55.5457117
40
1.1788216
50
117.1209298
51
149.5423755
0
ARC
8
bottom_labelLayer
10
278.3462857
20
55.3318767
40
1.424023
50
93.8343371
51
117.5072133
0
ARC
8
bottom_labelLayer
10
278.3795147
20
55.0375142
40
1.7200014
50
89.9661998
51
94.2830495
0
ARC
8
bottom_labelLayer
10
278.3994252
20
54.7938488
40
1.9637575
50
77.5572025
51
90.5513236
0
ARC
8
bottom_labelLayer
10
278.5816407
20
55.5775862
40
1.1592032
50
52.7027117
51
78.005395
0
ARC
8
bottom_labelLayer
10
278.6465603
20
55.6983717
40
1.0240066
50
22.2097808
51
51.4970501
0
ARC
8
bottom_labelLayer
10
280.7100708
20
55.4627278
40
1.2523645
50
119.4041841
51
150.182882
0
ARC
8
bottom_labelLayer
10
280.848979
20
55.2514886
40
1.5046903
50
118.2584474
51
120.0630323
0
ARC
8
bottom_labelLayer
10
280.8485679
20
55.2360738
40
1.5180927
50
95.8635094
51
117.9693335
0
ARC
8
bottom_labelLayer
10
280.8999447
20
54.8645852
40
1.8929319
50
89.9196367
51
96.2617548
0
ARC
8
bottom_labelLayer
10
280.9164401
20
54.6725946
40
2.0849667
50
79.9361372
51
90.3803433
0
ARC
8
bottom_labelLayer
10
281.0553635
20
55.4250001
40
1.3198724
50
62.9723124
51
80.1664784
0
ARC
8
bottom_labelLayer
10
281.2005906
20
55.7229495
40
0.9884872
50
44.229009
51
62.6229061
0
ARC
8
bottom_labelLayer
10
281.1573974
20
55.703869
40
1.0328778
50
19.561187
51
43.3161157
0
ARC
8
bottom_labelLayer
10
280.5300943
20
55.468252
40
1.7029059
50
7.5041416
51
19.9645635
0
ARC
8
bottom_labelLayer
10
279.4920628
20
55.3224801
40
2.7510992
50
359.7107087
51
7.6907224
0
ENDSEC
0
EOF